<?xml version="1.0" encoding="UTF-8"?>
<svg version="1.1" xmlns="http://www.w3.org/2000/svg" width="225" height="225">
<path d="M0 0 C74.25 0 148.5 0 225 0 C225 74.25 225 148.5 225 225 C150.75 225 76.5 225 0 225 C0 150.75 0 76.5 0 0 Z " fill="#FEFEFE" transform="translate(0,0)"/>
<path d="M0 0 C3.64259459 2.81590645 6.17793034 5.85410351 7.65234375 10.27734375 C8.65190015 21.04305772 6.51037524 28.79329789 0.02734375 37.40234375 C-7.87775548 46.68792906 -19.07686885 55.63712752 -31.39453125 57.81640625 C-35.94917871 57.96120718 -35.94917871 57.96120718 -38.34765625 57.27734375 C-41.0451572 53.23109233 -41.00677069 50.0294775 -40.34765625 45.27734375 C-38.13696557 40.93783982 -35.49962502 37.84761013 -31.34765625 35.27734375 C-28.16015625 34.90234375 -28.16015625 34.90234375 -25.34765625 35.27734375 C-23.34765625 37.27734375 -23.34765625 37.27734375 -22.9765625 39.64453125 C-23.46331749 43.09792981 -24.71750902 44.10093762 -27.28515625 46.40234375 C-30.56997558 49.32050378 -30.56997558 49.32050378 -32.34765625 53.27734375 C-20.66148622 49.65234958 -11.7820046 42.58084381 -5.59765625 31.99609375 C-3.86799041 28.23407055 -2.6373869 24.43501799 -3.34765625 20.27734375 C-4.2464171 18.30398687 -4.2464171 18.30398687 -6.34765625 17.27734375 C-12.27034186 17.3946858 -16.38703215 18.9553688 -21.41015625 22.08984375 C-22.56770833 22.78385417 -23.72526042 23.47786458 -24.8828125 24.171875 C-25.44758301 24.51718262 -26.01235352 24.86249023 -26.59423828 25.21826172 C-28.43246589 26.32856962 -30.28972006 27.39897131 -32.15625 28.4609375 C-33.90295002 29.45508133 -35.64335203 30.46215361 -37.34765625 31.52734375 C-40.54304665 32.72561515 -42.97245492 32.69184216 -46.34765625 32.27734375 C-49.62738527 29.90477382 -51.08912652 28.44072753 -51.97265625 24.46484375 C-50.32709989 16.07250629 -44.0988584 10.10512649 -37.34765625 5.27734375 C-26.25573087 -1.28932888 -12.29334912 -7.303237 0 0 Z " fill="#EC1B24" transform="translate(130.34765625,36.72265625)"/>
<path d="M0 0 C4.25362975 2.37388199 4.25362975 2.37388199 6 5 C6.73279565 8.79741827 6.56709192 12.4632734 6.375 16.3125 C6.34792969 17.33923828 6.32085937 18.36597656 6.29296875 19.42382812 C6.22243254 21.95137576 6.12393429 24.47460043 6 27 C0.21882544 30.20135734 -4.46903082 31.09346516 -11 30 C-13.89683868 27.7984026 -15.39297231 26.21405538 -17 23 C-17.43023798 19.12785818 -17.31669086 17.47503629 -15.125 14.1875 C-12.77902051 11.77252111 -11.95331151 11.03907014 -8.6171875 10.90234375 C-7.71226563 10.91394531 -6.80734375 10.92554688 -5.875 10.9375 C-4.96492188 10.94652344 -4.05484375 10.95554688 -3.1171875 10.96484375 C-2.41851562 10.97644531 -1.71984375 10.98804688 -1 11 C-1.66 9.35 -2.32 7.7 -3 6 C-6.3 6.33 -9.6 6.66 -13 7 C-13.33 5.35 -13.66 3.7 -14 2 C-9.63477668 -0.25301849 -4.80275455 -1.1277404 0 0 Z " fill="#EB1B25" transform="translate(67,121)"/>
<path d="M0 0 C3.62535141 1.647887 6.20557709 3.41115419 8 7 C8.24252172 10.04733819 8.13529279 12.93336339 8 16 C3.05 16 -1.9 16 -7 16 C-6.34 18.64 -5.68 21.28 -5 24 C1.08408472 24.19814261 1.08408472 24.19814261 7 23 C7.33 24.65 7.66 26.3 8 28 C3.01775419 30.97501009 -2.37698358 30.75383804 -8 30 C-11.83545373 27.31518239 -13.89020442 24.54007281 -15 20 C-15.76417178 13.09894104 -15.13408446 8.62694829 -11 3 C-7.67743981 -0.55170228 -4.72549625 -0.49742066 0 0 Z " fill="#EB1D26" transform="translate(142,121)"/>
<path d="M0 0 C2.31 0 4.62 0 7 0 C7 2.64 7 5.28 7 8 C8.65 8 10.3 8 12 8 C12 9.65 12 11.3 12 13 C10.35 13 8.7 13 7 13 C7.33 18.61 7.66 24.22 8 30 C9.32 30.66 10.64 31.32 12 32 C12 33.65 12 35.3 12 37 C5.66169154 37.36567164 5.66169154 37.36567164 2.625 35.6875 C-0.67195606 32.26373794 -0.11601288 28.42315532 -0.09765625 23.92578125 C-0.0962413 23.2419487 -0.09482635 22.55811615 -0.09336853 21.8535614 C-0.08777876 19.67316278 -0.07522822 17.49286749 -0.0625 15.3125 C-0.05748367 13.83268378 -0.052921 12.35286594 -0.04882812 10.87304688 C-0.03781271 7.24866443 -0.02055512 3.6243423 0 0 Z " fill="#EC1721" transform="translate(112,114)"/>
<path d="M0 0 C2.31 0 4.62 0 7 0 C7.33 9.9 7.66 19.8 8 30 C9.32 30.66 10.64 31.32 12 32 C12 33.65 12 35.3 12 37 C5.66169154 37.36567164 5.66169154 37.36567164 2.625 35.6875 C-0.67195606 32.26373794 -0.11601288 28.42315532 -0.09765625 23.92578125 C-0.0962413 23.2419487 -0.09482635 22.55811615 -0.09336853 21.8535614 C-0.08777876 19.67316278 -0.07522822 17.49286749 -0.0625 15.3125 C-0.05748367 13.83268378 -0.052921 12.35286594 -0.04882812 10.87304688 C-0.03781271 7.24866443 -0.02055512 3.6243423 0 0 Z " fill="#EB1A23" transform="translate(155,114)"/>
<path d="M0 0 C1.1446875 0.06767578 1.1446875 0.06767578 2.3125 0.13671875 C2.869375 0.19472656 3.42625 0.25273438 4 0.3125 C4.33 0.9725 4.66 1.6325 5 2.3125 C3 5.3125 3 5.3125 -4 7.3125 C-4.33 14.9025 -4.66 22.4925 -5 30.3125 C-7.64 30.3125 -10.28 30.3125 -13 30.3125 C-13.23272688 26.25096834 -13.37454311 22.19114757 -13.5 18.125 C-13.56703125 16.97451172 -13.6340625 15.82402344 -13.703125 14.63867188 C-13.89527226 6.35232142 -13.89527226 6.35232142 -11.359375 3.40698242 C-7.77159536 1.0318487 -4.36011647 -0.3406341 0 0 Z " fill="#EB272F" transform="translate(105,120.6875)"/>
<path d="M0 0 C2.31 0 4.62 0 7 0 C7 9.57 7 19.14 7 29 C4.69 29 2.38 29 0 29 C0 19.43 0 9.86 0 0 Z " fill="#EB1A24" transform="translate(79,122)"/>
<path d="M0 0 C3.37013879 0.67402776 4.51677007 1.7087875 6.5 4.5 C6.98746608 7.84262452 6.81565201 9.79442492 5.4375 12.875 C3.5 14.5 3.5 14.5 0 15 C-3.5 14.5 -3.5 14.5 -5.4375 12.875 C-6.81565201 9.79442492 -6.98746608 7.84262452 -6.5 4.5 C-4.51677007 1.7087875 -3.37013879 0.67402776 0 0 Z " fill="#E91B20" transform="translate(98.5,169.5)"/>
<path d="M0 0 C2.875 0.875 2.875 0.875 4.875 2.875 C4.875 4.525 4.875 6.175 4.875 7.875 C1.575 7.875 -1.725 7.875 -5.125 7.875 C-4.135 9.36 -4.135 9.36 -3.125 10.875 C-0.31938238 11.15556176 1.34078263 11.14210868 3.875 9.875 C3.875 10.865 3.875 11.855 3.875 12.875 C1.07629973 14.27435013 -1.02998792 14.12765405 -4.125 13.875 C-6 12.8125 -6 12.8125 -7.125 10.875 C-7.62849299 6.91898367 -7.69669314 4.7545279 -5.5 1.375 C-3.125 -0.125 -3.125 -0.125 0 0 Z " fill="#E70B1A" transform="translate(130.125,170.125)"/>
<path d="M0 0 C3.57845551 0.67861912 3.57845551 0.67861912 6.9375 -0.0625 C7.824375 -0.206875 8.71125 -0.35125 9.625 -0.5 C11.625 1.5 11.625 1.5 11.8203125 4.3203125 C11.79710938 5.41085938 11.77390625 6.50140625 11.75 7.625 C11.73195313 8.72070312 11.71390625 9.81640625 11.6953125 10.9453125 C11.67210938 11.78835937 11.64890625 12.63140625 11.625 13.5 C10.965 13.5 10.305 13.5 9.625 13.5 C9.295 9.87 8.965 6.24 8.625 2.5 C7.305 2.83 5.985 3.16 4.625 3.5 C4.295 6.8 3.965 10.1 3.625 13.5 C2.965 13.5 2.305 13.5 1.625 13.5 C1.295 9.87 0.965 6.24 0.625 2.5 C-1.025 2.83 -2.675 3.16 -4.375 3.5 C-4.705 6.8 -5.035 10.1 -5.375 13.5 C-6.035 13.5 -6.695 13.5 -7.375 13.5 C-7.375 9.21 -7.375 4.92 -7.375 0.5 C-3.375 -0.5 -3.375 -0.5 0 0 Z " fill="#E81A1E" transform="translate(76.375,170.5)"/>
<path d="M0 0 C4.55555556 0.55555556 4.55555556 0.55555556 6 2 C6.125 5.5 6.125 5.5 6 9 C5 10 5 10 2.5625 10.1875 C0 10 0 10 -2 8 C-2.25 5 -2.25 5 -2 2 C-1.34 1.34 -0.68 0.68 0 0 Z " fill="#FBF2F2" transform="translate(96,172)"/>
<path d="M0 0 C2.5 0.25 2.5 0.25 4.5 2.25 C4.75 4.75 4.75 4.75 4.5 7.25 C2.5 9.25 2.5 9.25 0 9.5 C-2.5 9.25 -2.5 9.25 -4.5 7.25 C-4.75 4.75 -4.75 4.75 -4.5 2.25 C-2.5 0.25 -2.5 0.25 0 0 Z " fill="#EA1C24" transform="translate(82.5,109.75)"/>
<path d="M0 0 C1 1 1 1 1.09765625 3.72265625 C1.08605469 4.82480469 1.07445313 5.92695313 1.0625 7.0625 C1.05347656 8.16722656 1.04445313 9.27195313 1.03515625 10.41015625 C1.02355469 11.26480469 1.01195313 12.11945313 1 13 C0.34 13 -0.32 13 -1 13 C-1.33 9.37 -1.66 5.74 -2 2 C-5.74275212 2.57125354 -5.74275212 2.57125354 -7 4 C-7.23192865 5.51469448 -7.41215238 7.03754562 -7.5625 8.5625 C-7.64628906 9.38878906 -7.73007813 10.21507812 -7.81640625 11.06640625 C-7.87699219 11.70449219 -7.93757813 12.34257812 -8 13 C-8.66 13 -9.32 13 -10 13 C-10 8.71 -10 4.42 -10 0 C-5.66473162 -0.86705368 -4.00869538 -1.11352649 0 0 Z " fill="#E82B2E" transform="translate(118,171)"/>
<path d="M0 0 C0.94875 0.04125 1.8975 0.0825 2.875 0.125 C2.875 3.095 2.875 6.065 2.875 9.125 C0 9.25 0 9.25 -3.125 9.125 C-5.125 7.125 -5.125 7.125 -5.375 4.625 C-4.98192433 0.69424327 -3.8631953 0.15452781 0 0 Z " fill="#FCF9F9" transform="translate(63.125,136.875)"/>
<path d="M0 0 C0.99 0.33 1.98 0.66 3 1 C4.6875 4.5625 4.6875 4.5625 6 8 C7.32 5.36 8.64 2.72 10 0 C10.66 0 11.32 0 12 0 C11.35534798 4.33304076 9.81074878 7.86672065 7.9375 11.8125 C7.38964844 12.97394531 6.84179688 14.13539063 6.27734375 15.33203125 C5.85582031 16.21246094 5.43429688 17.09289062 5 18 C4.34 18 3.68 18 3 18 C3.2475 17.071875 3.495 16.14375 3.75 15.1875 C4.58975277 9.74590208 2.07466708 4.92399526 0 0 Z " fill="#E81A1D" transform="translate(137,171)"/>
<path d="M0 0 C2.9375 0.875 2.9375 0.875 4.3125 2.9375 C4.51875 3.576875 4.725 4.21625 4.9375 4.875 C4.2775 5.535 3.6175 6.195 2.9375 6.875 C0.20880593 6.84212417 -2.3591618 6.31102229 -5.0625 5.875 C-5.3925 4.555 -5.7225 3.235 -6.0625 1.875 C-3.0625 -0.125 -3.0625 -0.125 0 0 Z " fill="#E8292F" transform="translate(130.0625,170.125)"/>
<path d="M0 0 C0.21691118 3.18136394 0.25066255 5.43969547 -1.0625 8.375 C-3.93947559 10.78794727 -6.37659799 10.2734643 -10 10 C-10.66 8.68 -11.32 7.36 -12 6 C-9.36 6.33 -6.72 6.66 -4 7 C-3.87625 6.030625 -3.7525 5.06125 -3.625 4.0625 C-3.41875 3.051875 -3.2125 2.04125 -3 1 C-1 0 -1 0 0 0 Z " fill="#E9262C" transform="translate(105,174)"/>
<path d="M0 0 C1.65 0 3.3 0 5 0 C4.52433594 0.84304687 4.52433594 0.84304687 4.0390625 1.703125 C2.93125475 4.15196317 2.61024601 6.08387855 2.375 8.75 C2.30023438 9.54921875 2.22546875 10.3484375 2.1484375 11.171875 C2.09945312 11.77515625 2.05046875 12.3784375 2 13 C1.34 13 0.68 13 0 13 C0 8.71 0 4.42 0 0 Z " fill="#E72226" transform="translate(108,171)"/>
<path d="M0 0 C1.67542976 0.28604898 3.34385343 0.61781233 5 1 C5.33 2.32 5.66 3.64 6 5 C3.36 5 0.72 5 -2 5 C-1.125 1.125 -1.125 1.125 0 0 Z " fill="#FAF1F1" transform="translate(137,127)"/>
<path d="M0 0 C0.66 0 1.32 0 2 0 C1.33501617 4.38889325 -0.18757677 7.9811485 -2 12 C-2.66 12 -3.32 12 -4 12 C-4.6875 10.1875 -4.6875 10.1875 -5 8 C-3.6875 6.5625 -3.6875 6.5625 -2 5 C-0.80972016 2.40084462 -0.80972016 2.40084462 0 0 Z " fill="#E9252B" transform="translate(147,171)"/>
<path d="M0 0 C1.65 0.33 3.3 0.66 5 1 C5.33 1.99 5.66 2.98 6 4 C3.36 4 0.72 4 -2 4 C-1.34 2.68 -0.68 1.36 0 0 Z " fill="#F6E0E1" transform="translate(127,172)"/>
<path d="M0 0 C1.11375 0.185625 2.2275 0.37125 3.375 0.5625 C6.82568861 1.31680657 6.82568861 1.31680657 9 0 C9 0.99 9 1.98 9 3 C6.29120665 4.35439668 3.99066732 4.06501451 1 4 C0.67 2.68 0.34 1.36 0 0 Z " fill="#E8262A" transform="translate(125,180)"/>
<path d="M0 0 C0.36923077 5.53846154 0.36923077 5.53846154 -1.5 7.875 C-2.2425 8.431875 -2.2425 8.431875 -3 9 C-4.45169732 6.09660535 -3.72348441 4.09125158 -3 1 C-1 0 -1 0 0 0 Z " fill="#E74E53" transform="translate(105,174)"/>
</svg>
