<?xml version="1.0" encoding="UTF-8"?>
<svg version="1.1" xmlns="http://www.w3.org/2000/svg" width="240" height="240">
<path d="M0 0 C79.2 0 158.4 0 240 0 C240 79.2 240 158.4 240 240 C160.8 240 81.6 240 0 240 C0 160.8 0 81.6 0 0 Z " fill="#FDFDFD" transform="translate(0,0)"/>
<path d="M0 0 C0.79140381 0.12689209 1.58280762 0.25378418 2.39819336 0.38452148 C9.5054881 1.59332875 16.50185301 3.2132505 23.5 4.9375 C24.55324463 5.1948291 25.60648926 5.4521582 26.69165039 5.71728516 C28.16106079 6.09119385 28.16106079 6.09119385 29.66015625 6.47265625 C30.53422119 6.69445557 31.40828613 6.91625488 32.30883789 7.14477539 C34.4375 7.875 34.4375 7.875 36.4375 9.875 C38.04595815 10.55945028 39.65482917 11.24294452 41.265625 11.921875 C54.89917264 17.90494267 69.35956365 28.70676782 75.73828125 42.6484375 C77.71403739 48.93995147 77.18263593 54.99513331 74.5625 61 C68.15588268 72.27421484 57.25100886 78.17374428 45.1875 81.87109375 C36.88295177 84.04065697 28.84095847 85.0313012 20.27734375 85.04296875 C18.97694908 85.04796135 18.97694908 85.04796135 17.65028381 85.05305481 C15.82065355 85.05809692 13.99101416 85.06046398 12.16137695 85.06030273 C9.40755403 85.06247433 6.65414207 85.08061799 3.90039062 85.09960938 C-6.12041382 85.13049065 -15.68043709 84.70539574 -25.5625 82.875 C-25.5625 83.535 -25.5625 84.195 -25.5625 84.875 C-28.99106619 83.36517269 -31.51928216 81.35786031 -34.3125 78.875 C-35.11171875 78.17375 -35.9109375 77.4725 -36.734375 76.75 C-38.5625 74.875 -38.5625 74.875 -38.5625 72.875 C-35.9225 72.875 -33.2825 72.875 -30.5625 72.875 C-30.5625 72.215 -30.5625 71.555 -30.5625 70.875 C-26.6025 70.875 -22.6425 70.875 -18.5625 70.875 C-18.2325 71.535 -17.9025 72.195 -17.5625 72.875 C3.50604196 77.71477044 34.45829292 81.06723321 53.63671875 69.1484375 C55.98432628 67.48830723 58.21277952 65.69522585 60.4375 63.875 C61.0975 63.875 61.7575 63.875 62.4375 63.875 C62.7675 62.555 63.0975 61.235 63.4375 59.875 C62.1175 59.875 60.7975 59.875 59.4375 59.875 C57.13932527 56.01999723 55.53440688 53.26262753 54.4375 48.875 C47.5075 48.38 47.5075 48.38 40.4375 47.875 C39.963125 49.298125 39.48875 50.72125 39 52.1875 C38.14583333 54.75 37.29166667 57.3125 36.4375 59.875 C34.7875 59.875 33.1375 59.875 31.4375 59.875 C31.4375 60.535 31.4375 61.195 31.4375 61.875 C27.36955805 60.51901935 26.7143499 58.46428824 24.4375 54.875 C22.83472034 52.67492356 21.16805599 50.52584709 19.5 48.375 C19.08298828 47.83230469 18.66597656 47.28960937 18.23632812 46.73046875 C15.38186924 43.03334889 12.43406836 39.47088204 9.4375 35.875 C9.1075 43.795 8.7775 51.715 8.4375 59.875 C-0.5625 59.875 -0.5625 59.875 -2.53515625 58.265625 C-3.07462891 57.20601562 -3.07462891 57.20601562 -3.625 56.125 C-4.00785156 55.42890625 -4.39070313 54.7328125 -4.78515625 54.015625 C-5.5625 51.875 -5.5625 51.875 -5.5625 47.875 C-10.5125 47.875 -15.4625 47.875 -20.5625 47.875 C-21.036875 49.48375 -21.51125 51.0925 -22 52.75 C-23.4375 57.625 -23.4375 57.625 -24.5625 59.875 C-26.84765625 60.2890625 -26.84765625 60.2890625 -29.625 60.5 C-30.54410156 60.57476562 -31.46320313 60.64953125 -32.41015625 60.7265625 C-33.12042969 60.77554688 -33.83070312 60.82453125 -34.5625 60.875 C-34.68367188 60.029375 -34.80484375 59.18375 -34.9296875 58.3125 C-35.09726563 57.178125 -35.26484375 56.04375 -35.4375 54.875 C-35.59992188 53.76125 -35.76234375 52.6475 -35.9296875 51.5 C-36.61860105 47.55363101 -37.5512286 43.75012403 -38.5625 39.875 C-38.97242187 40.97199219 -39.38234375 42.06898437 -39.8046875 43.19921875 C-40.34892886 44.65365686 -40.89320133 46.10808333 -41.4375 47.5625 C-41.70691406 48.28373047 -41.97632812 49.00496094 -42.25390625 49.74804688 C-43.64918603 53.47446483 -45.06452917 57.18824655 -46.5625 60.875 C-48.5625 59.875 -48.5625 59.875 -49.78125 56.6015625 C-50.2157612 55.23671751 -50.64252087 53.86938649 -51.0625 52.5 C-52.78016188 46.95933716 -52.78016188 46.95933716 -55.5625 41.875 C-55.5625 40.555 -55.5625 39.235 -55.5625 37.875 C-56.2225 37.875 -56.8825 37.875 -57.5625 37.875 C-57.61148438 38.54144531 -57.66046875 39.20789063 -57.7109375 39.89453125 C-58.25914269 46.65257799 -59.23802143 53.22688914 -60.5625 59.875 C-63.5325 59.875 -66.5025 59.875 -69.5625 59.875 C-70.40069158 58.25250059 -71.2329116 56.62691503 -72.0625 55 C-72.5265625 54.09507813 -72.990625 53.19015625 -73.46875 52.2578125 C-74.5625 49.875 -74.5625 49.875 -74.5625 47.875 C-79.1825 48.205 -83.8025 48.535 -88.5625 48.875 C-89.861875 51.72125 -89.861875 51.72125 -91.1875 54.625 C-91.67476562 55.69234375 -92.16203125 56.7596875 -92.6640625 57.859375 C-93.79914906 60.72218142 -93.79914906 60.72218142 -93.0078125 63.02734375 C-84.4663768 73.94653047 -68.62151709 79.72928581 -55.62109375 83.05078125 C-52.5625 83.875 -52.5625 83.875 -49.98828125 84.91796875 C-47.41673725 85.93250704 -45.03753268 86.42879582 -42.3125 86.875 C-37.35223233 87.72302405 -32.46692331 88.74939465 -27.5625 89.875 C-27.5625 90.205 -27.5625 90.535 -27.5625 90.875 C-51.91052159 92.00067908 -79.43530573 83.71645859 -97.84570312 67.39233398 C-114.77451965 51.81406724 -114.77451965 51.81406724 -116.5625 41.875 C-116.63040675 39.62592848 -116.64749984 37.37498395 -116.625 35.125 C-116.61597656 33.95453125 -116.60695313 32.7840625 -116.59765625 31.578125 C-116.58605469 30.68609375 -116.57445313 29.7940625 -116.5625 28.875 C-115.9025 28.875 -115.2425 28.875 -114.5625 28.875 C-114.52125 28.194375 -114.48 27.51375 -114.4375 26.8125 C-111.81166742 17.99720491 -102.92795167 13.15044924 -95.36865234 8.83056641 C-83.37858579 2.48707891 -70.46243644 2.68834783 -57.27172852 2.68969727 C-54.89776391 2.68752087 -52.52427281 2.6693423 -50.15039062 2.65039062 C-40.74955587 2.61595533 -31.84147766 3.24267802 -22.5625 4.875 C-20.56257402 5.20877717 -18.56259597 5.54224299 -16.5625 5.875 C-16.5625 5.215 -16.5625 4.555 -16.5625 3.875 C-15.9025 3.875 -15.2425 3.875 -14.5625 3.875 C-14.5625 3.215 -14.5625 2.555 -14.5625 1.875 C-16.5425 1.875 -18.5225 1.875 -20.5625 1.875 C-20.5625 1.215 -20.5625 0.555 -20.5625 -0.125 C-13.984829 -2.317557 -6.73104984 -1.09472505 0 0 Z " fill="#FBFAF7" transform="translate(139.5625,64.125)"/>
<path d="M0 0 C2.3739646 -0.0021764 4.74745571 -0.02035496 7.12133789 -0.03930664 C16.52217265 -0.07374193 25.43025085 0.55298075 34.70922852 2.18530273 C36.70915449 2.51907991 38.70913255 2.85254572 40.70922852 3.18530273 C40.70922852 2.52530273 40.70922852 1.86530273 40.70922852 1.18530273 C44.56849564 2.7343205 46.73682011 5.15617881 49.45922852 8.24780273 C50.25844727 9.1462793 51.05766602 10.04475586 51.88110352 10.97045898 C53.70922852 13.18530273 53.70922852 13.18530273 53.70922852 14.18530273 C46.96769569 15.4437222 40.57438714 16.4493473 33.70922852 16.18530273 C33.70922852 15.19530273 33.70922852 14.20530273 33.70922852 13.18530273 C32.69860352 13.21624023 31.68797852 13.24717773 30.64672852 13.27905273 C26.75449509 13.18638051 23.49611231 12.55179309 19.70922852 11.68530273 C11.83717197 10.12365446 3.96042677 9.82376034 -4.04589844 9.76342773 C-6.05538525 9.74816641 -8.06471081 9.71499952 -10.07397461 9.68139648 C-22.27435318 9.70608111 -33.52956055 12.55664765 -43.29077148 20.18530273 C-47.62096515 24.91235733 -50.76993474 29.12134558 -50.61499023 35.72436523 C-48.99273529 48.03786658 -40.64240621 56.74502995 -31.62280273 64.47045898 C-21.5809683 72.16870429 -10.55068622 77.24375226 1.65063477 80.36108398 C4.70922852 81.18530273 4.70922852 81.18530273 7.28344727 82.22827148 C9.85499126 83.24280978 12.23419583 83.73909855 14.95922852 84.18530273 C19.91949619 85.03332679 24.80480521 86.05969739 29.70922852 87.18530273 C29.70922852 87.51530273 29.70922852 87.84530273 29.70922852 88.18530273 C5.36120692 89.31098181 -22.16357721 81.02676133 -40.57397461 64.70263672 C-57.50279113 49.12436998 -57.50279113 49.12436998 -59.29077148 39.18530273 C-59.35867823 36.93623121 -59.37577132 34.68528669 -59.35327148 32.43530273 C-59.34424805 31.26483398 -59.33522461 30.09436523 -59.32592773 28.88842773 C-59.31432617 27.99639648 -59.30272461 27.10436523 -59.29077148 26.18530273 C-58.63077148 26.18530273 -57.97077148 26.18530273 -57.29077148 26.18530273 C-57.24952148 25.50467773 -57.20827148 24.82405273 -57.16577148 24.12280273 C-54.5399389 15.30750765 -45.65622315 10.46075197 -38.09692383 6.14086914 C-26.10685727 -0.20261836 -13.19070792 -0.00134943 0 0 Z " fill="#14A43E" transform="translate(82.290771484375,66.814697265625)"/>
<path d="M0 0 C11.83603802 -0.70545922 22.52733906 1.35488925 34 4 C35.19979492 4.27215332 35.19979492 4.27215332 36.42382812 4.54980469 C49.55638183 7.55638183 49.55638183 7.55638183 52 10 C53.60845815 10.68445028 55.21732917 11.36794452 56.828125 12.046875 C70.46167264 18.02994267 84.92206365 28.83176782 91.30078125 42.7734375 C93.27653739 49.06495147 92.74513593 55.12013331 90.125 61.125 C83.71838268 72.39921484 72.81350886 78.29874428 60.75 81.99609375 C52.44545177 84.16565697 44.40345847 85.1563012 35.83984375 85.16796875 C34.53944908 85.17296135 34.53944908 85.17296135 33.21278381 85.17805481 C31.38315355 85.18309692 29.55351416 85.18546398 27.72387695 85.18530273 C24.97005403 85.18747433 22.21664207 85.20561799 19.46289062 85.22460938 C9.44208618 85.25549065 -0.11793709 84.83039574 -10 83 C-10 83.66 -10 84.32 -10 85 C-13.42856619 83.49017269 -15.95678216 81.48286031 -18.75 79 C-19.94882813 77.948125 -19.94882813 77.948125 -21.171875 76.875 C-23 75 -23 75 -23 73 C-20.36 73 -17.72 73 -15 73 C-15 72.34 -15 71.68 -15 71 C-11.04 71 -7.08 71 -3 71 C-2.505 71.99 -2.505 71.99 -2 73 C19.06854196 77.83977044 50.02079292 81.19223321 69.19921875 69.2734375 C71.54682628 67.61330723 73.77527952 65.82022585 76 64 C76.66 64 77.32 64 78 64 C78.268125 63.46375 78.53625 62.9275 78.8125 62.375 C80 60 80 60 81.625 57.3125 C83.71499608 52.27750943 84.09549199 47.86288573 82.12109375 42.703125 C74.74263827 28.57934884 61.24281845 18.50922242 46.546875 12.96484375 C44.91796823 12.3477579 43.30119481 11.69694673 41.703125 11.00390625 C28.48068952 5.30228558 14.14051905 3.16035708 0 1 C0 0.67 0 0.34 0 0 Z " fill="#057736" transform="translate(124,64)"/>
<path d="M0 0 C2.80243462 1.40121731 2.82465052 2.87417325 3.8125 5.8125 C6.72812863 16.09684894 6.72812863 16.09684894 12 25 C12.20157715 24.42032471 12.4031543 23.84064941 12.61083984 23.2434082 C13.53103841 20.5993569 14.45300277 17.9559246 15.375 15.3125 C15.69210938 14.40048828 16.00921875 13.48847656 16.3359375 12.54882812 C16.6453125 11.66259766 16.9546875 10.77636719 17.2734375 9.86328125 C17.69761963 8.64572144 17.69761963 8.64572144 18.13037109 7.40356445 C19.03196198 4.91166039 20.00271729 2.45499672 21 0 C21.66 0 22.32 0 23 0 C23.18175781 1.16015625 23.36351563 2.3203125 23.55078125 3.515625 C25.25515374 14.17473865 25.25515374 14.17473865 27.6875 24.6875 C28.83089664 28.96928223 29.30115319 32.58308652 29 37 C26.525 37.495 26.525 37.495 24 38 C23.87882812 37.154375 23.75765625 36.30875 23.6328125 35.4375 C23.46523437 34.303125 23.29765625 33.16875 23.125 32 C22.96257812 30.88625 22.80015625 29.7725 22.6328125 28.625 C21.94389895 24.67863101 21.0112714 20.87512403 20 17 C19.59007813 18.09699219 19.18015625 19.19398437 18.7578125 20.32421875 C18.21357114 21.77865686 17.66929867 23.23308333 17.125 24.6875 C16.85558594 25.40873047 16.58617188 26.12996094 16.30859375 26.87304688 C14.91331397 30.59946483 13.49797083 34.31324655 12 38 C10 37 10 37 8.78125 33.7265625 C8.3467388 32.36171751 7.91997913 30.99438649 7.5 29.625 C5.78233812 24.08433716 5.78233812 24.08433716 3 19 C3 17.68 3 16.36 3 15 C2.34 15 1.68 15 1 15 C0.95101562 15.66644531 0.90203125 16.33289063 0.8515625 17.01953125 C0.30335731 23.77757799 -0.67552143 30.35188914 -2 37 C-3.32 37 -4.64 37 -6 37 C-5.37947744 28.84489702 -3.97159759 20.9021549 -2.4375 12.875 C-2.20353516 11.63234375 -1.96957031 10.3896875 -1.72851562 9.109375 C-1.15612136 6.07218093 -0.57987052 3.03577394 0 0 Z " fill="#EE8942" transform="translate(81,87)"/>
<path d="M0 0 C5.62390277 5.62390277 5.62390277 5.62390277 7.75390625 8.375 C8.21603516 8.96796875 8.67816406 9.5609375 9.15429688 10.171875 C9.61900391 10.77515625 10.08371094 11.3784375 10.5625 12 C11.50112856 13.20846813 12.43992768 14.4168038 13.37890625 15.625 C13.82121582 16.19863281 14.26352539 16.77226563 14.71923828 17.36328125 C15.89758208 18.86911747 17.1169674 20.34259855 18.33984375 21.8125 C20 24 20 24 20 26 C20.66 26 21.32 26 22 26 C22 17.75 22 9.5 22 1 C23.32 1 24.64 1 26 1 C26 13.21 26 25.42 26 38 C25.34 38 24.68 38 24 38 C23.018015 36.59776766 22.04515265 35.18792178 21.12841797 33.7421875 C19.26929785 30.87185406 17.15704368 28.20077454 15.0625 25.5 C14.64548828 24.95730469 14.22847656 24.41460937 13.79882812 23.85546875 C10.94436924 20.15834889 7.99656836 16.59588204 5 13 C4.67 20.92 4.34 28.84 4 37 C2.68 37 1.36 37 0 37 C0 24.79 0 12.58 0 0 Z " fill="#ED8030" transform="translate(144,87)"/>
<path d="M0 0 C2.31599715 2.86352009 3.79997496 5.57404236 5.15625 8.9921875 C5.53910156 9.94480469 5.92195313 10.89742187 6.31640625 11.87890625 C6.90228516 13.36197266 6.90228516 13.36197266 7.5 14.875 C10.42190837 22.28953535 10.42190837 22.28953535 13.76953125 29.515625 C15.1190851 32.24043849 15.26476424 33.99933866 15 37 C14.01 37 13.02 37 12 37 C9.70182527 33.14499723 8.09690688 30.38762753 7 26 C0.07 25.505 0.07 25.505 -7 25 C-7.7115625 27.1346875 -7.7115625 27.1346875 -8.4375 29.3125 C-9.29166667 31.875 -10.14583333 34.4375 -11 37 C-12.32 36.67 -13.64 36.34 -15 36 C-14.43560087 31.89106892 -13.51605912 28.4252798 -11.85546875 24.62890625 C-11.21061523 23.14874023 -11.21061523 23.14874023 -10.55273438 21.63867188 C-10.10220703 20.62353516 -9.65167969 19.60839844 -9.1875 18.5625 C-8.74857422 17.55123047 -8.30964844 16.53996094 -7.85742188 15.49804688 C-5.50492124 10.13937902 -3.0238285 5.01151996 0 0 Z " fill="#ED7E2B" transform="translate(187,87)"/>
<path d="M0 0 C0.66 0 1.32 0 2 0 C3.44058722 3.33200731 4.87689798 6.66584213 6.3125 10 C6.71662109 10.93457031 7.12074219 11.86914062 7.53710938 12.83203125 C9.34060655 17.02552876 11.1071612 21.20949818 12.66796875 25.5 C13.86752758 29.04230195 13.86752758 29.04230195 16 32 C15.625 34.6875 15.625 34.6875 15 37 C12 36 12 36 10.83203125 34.00390625 C10.49558594 33.19824219 10.15914062 32.39257812 9.8125 31.5625 C9.46832031 30.75941406 9.12414062 29.95632812 8.76953125 29.12890625 C8 27 8 27 8 25 C3.38 25.33 -1.24 25.66 -6 26 C-7.65 29.63 -9.3 33.26 -11 37 C-11.99 36.67 -12.98 36.34 -14 36 C-12.63665201 28.54031753 -10.10252117 22.08839351 -7 15.1875 C-6.54882812 14.16462891 -6.09765625 13.14175781 -5.6328125 12.08789062 C-3.83069779 8.01713743 -2.01956846 3.96824454 0 0 Z " fill="#ED8030" transform="translate(57,87)"/>
<path d="M0 0 C2.74910656 2.22546721 3.87846533 4.73765741 5.18359375 7.9765625 C6.07108744 10.17618801 7.02882214 12.3360828 8 14.5 C9.70218488 18.31858966 11.36167173 22.15349016 13 26 C13.28101563 26.60972656 13.56203125 27.21945313 13.8515625 27.84765625 C15.38596436 31.22477437 16 33.20970032 16 37 C14.25 36.9375 14.25 36.9375 12 36 C9.13940656 32.32761653 8 29.70446134 8 25 C3.05 25 -1.9 25 -7 25 C-7.474375 26.60875 -7.94875 28.2175 -8.4375 29.875 C-9.875 34.75 -9.875 34.75 -11 37 C-11.99 37 -12.98 37 -14 37 C-13.57081521 26.27038024 -7.94686335 16.54780051 -3.078125 7.18359375 C-1.91766214 4.83323601 -0.94496326 2.44401862 0 0 Z " fill="#ED8130" transform="translate(126,87)"/>
<path d="M0 0 C2.5623075 1.42350417 3.76054882 2.74145064 5.25 5.25 C5.25 5.91 5.25 6.57 5.25 7.25 C5.91 7.25 6.57 7.25 7.25 7.25 C7.25 5.27 7.25 3.29 7.25 1.25 C8.24 0.92 9.23 0.59 10.25 0.25 C9.59 4.21 8.93 8.17 8.25 12.25 C7.26 12.25 6.27 12.25 5.25 12.25 C3.5625 9.75 3.5625 9.75 2.25 7.25 C1.26 9.23 0.27 11.21 -0.75 13.25 C-1.74 12.92 -2.73 12.59 -3.75 12.25 C-4.74 12.745 -4.74 12.745 -5.75 13.25 C-7.74960012 13.289992 -9.75047242 13.29346799 -11.75 13.25 C-11.75 11.6 -11.75 9.95 -11.75 8.25 C-12.636875 9.075 -13.52375 9.9 -14.4375 10.75 C-16.76307407 12.71099476 -17.49787194 13.22259478 -20.625 13.5625 C-21.676875 13.4078125 -21.676875 13.4078125 -22.75 13.25 C-24.29586876 10.15826248 -24.04359521 7.65570448 -23.75 4.25 C-22.125 1.8125 -22.125 1.8125 -19.75 0.25 C-16.625 0 -16.625 0 -13.75 0.25 C-8.89740641 0.25 -5.20922218 -1.42069696 0 0 Z " fill="#FBF2EA" transform="translate(194.75,162.75)"/>
<path d="M0 0 C8.55353548 5.7334325 17.98490164 13.77662013 21 24 C22.07848157 30.53900406 20.67819775 34.59764705 17 40 C15 39 15 39 14.2890625 37.03125 C14.06992188 36.1959375 13.85078125 35.360625 13.625 34.5 C12.28512364 29.39878398 10.18933876 24.77965177 8 20 C6.57944361 16.85591272 5.16482269 13.70917047 3.75 10.5625 C3.38648438 9.76134766 3.02296875 8.96019531 2.6484375 8.13476562 C2.30554688 7.36970703 1.96265625 6.60464844 1.609375 5.81640625 C1.29967773 5.13006104 0.98998047 4.44371582 0.67089844 3.73657227 C0 2 0 2 0 0 Z " fill="#F1F4EE" transform="translate(187,85)"/>
<path d="M0 0 C0.66 0 1.32 0 2 0 C2.18175781 1.16015625 2.36351563 2.3203125 2.55078125 3.515625 C4.25515374 14.17473865 4.25515374 14.17473865 6.6875 24.6875 C7.83089664 28.96928223 8.30115319 32.58308652 8 37 C5.525 37.495 5.525 37.495 3 38 C2.87882812 37.154375 2.75765625 36.30875 2.6328125 35.4375 C1.70916305 29.18510375 0.67335583 23.09579623 -1 17 C-2.65 20.96 -4.3 24.92 -6 29 C-6.99 28.67 -7.98 28.34 -9 28 C-6.90245907 18.2850736 -3.61755059 9.22533938 0 0 Z " fill="#ED7B27" transform="translate(102,87)"/>
<path d="M0 0 C0.66 0 1.32 0 2 0 C3.03516348 2.24435445 4.05314977 4.49406867 5.0625 6.75 C5.35705078 7.38421875 5.65160156 8.0184375 5.95507812 8.671875 C8.05030005 13.40461159 8.05030005 13.40461159 7.80859375 16.265625 C7 18 7 18 5 21 C2.8359375 21.29296875 2.8359375 21.29296875 0.375 21.1875 C-0.85089844 21.14689453 -0.85089844 21.14689453 -2.1015625 21.10546875 C-2.72804687 21.07066406 -3.35453125 21.03585938 -4 21 C-4 19.35 -4 17.7 -4 16 C-4.66 15.67 -5.32 15.34 -6 15 C-4.36041242 9.76727367 -2.61047965 4.84803364 0 0 Z " fill="#EE8A41" transform="translate(57,87)"/>
<path d="M0 0 C2.21908624 2.7441658 3.66618088 5.22518671 4.8125 8.5625 C5.22435547 9.70912109 5.22435547 9.70912109 5.64453125 10.87890625 C6 13 6 13 4 16 C4.3121764 18.64632287 4.3121764 18.64632287 5 21 C1.7 21 -1.6 21 -5 21 C-5.33 20.01 -5.66 19.02 -6 18 C-6.66 18 -7.32 18 -8 18 C-6.10463724 11.48180123 -3.4821006 5.82185199 0 0 Z " fill="#EE8233" transform="translate(187,87)"/>
<path d="M0 0 C0.433125 0.474375 0.86625 0.94875 1.3125 1.4375 C3.02309613 3.23686957 3.02309613 3.23686957 6 4 C5.67 2.68 5.34 1.36 5 0 C5.66 0.33 6.32 0.66 7 1 C7.48382589 2.65973316 7.96100061 4.32181569 8.39746094 5.99462891 C9.62696198 10.08665548 11.70518831 13.8460516 13.609375 17.65820312 C15.28350171 21.10845167 16 23.08402816 16 27 C14.25 26.9375 14.25 26.9375 12 26 C8.17010813 20.78709162 7.55142436 17.39220288 8 11 C7.01 11.66 6.02 12.32 5 13 C4.67 12.67 4.34 12.34 4 12 C2.65252916 11.76924918 1.29622435 11.58846937 -0.0625 11.4375 C-1.361875 11.293125 -2.66125 11.14875 -4 11 C-3.21681311 7.08406554 -1.60820142 3.63593365 0 0 Z " fill="#EE893D" transform="translate(126,97)"/>
<path d="M0 0 C4.5009052 -0.17650609 8.01029221 -0.21650433 12 2 C15 5.31034483 15 5.31034483 15 8 C15.66 8 16.32 8 17 8 C17 6.02 17 4.04 17 2 C17.99 1.67 18.98 1.34 20 1 C19.34 4.96 18.68 8.92 18 13 C17.01 13 16.02 13 15 13 C13.3125 10.5 13.3125 10.5 12 8 C11.01 9.98 10.02 11.96 9 14 C4.545 13.01 4.545 13.01 0 12 C0.33 10.68 0.66 9.36 1 8 C1.99 8 2.98 8 4 8 C4 7.34 4 6.68 4 6 C3.01 6 2.02 6 1 6 C1 5.01 1 4.02 1 3 C2.32 2.67 3.64 2.34 5 2 C3.35 1.67 1.7 1.34 0 1 C0 0.67 0 0.34 0 0 Z " fill="#F9EADF" transform="translate(185,162)"/>
<path d="M0 0 C1.69144755 0.60102197 3.35594052 1.27938177 5 2 C8.65253785 3.37330807 12.32401875 4.69087635 16 6 C17.48306641 6.53367188 17.48306641 6.53367188 18.99609375 7.078125 C24.75573453 9.08538602 30.35516859 10.58252745 36.375 11.5625 C40.28869954 12.21478326 44.13357879 13.11262464 48 14 C48 14.33 48 14.66 48 15 C29.47065619 15.85666487 14.0270433 10.62293595 -3 4 C-2.67 3.01 -2.34 2.02 -2 1 C-1.34 0.67 -0.68 0.34 0 0 Z " fill="#26AA48" transform="translate(64,140)"/>
<path d="M0 0 C1.32 0 2.64 0 4 0 C4 12.21 4 24.42 4 37 C3.34 37 2.68 37 2 37 C-0.6020866 33.50344613 -2.54997977 30.10839064 -4 26 C-2.35 26 -0.7 26 1 26 C0.67 17.42 0.34 8.84 0 0 Z " fill="#EE8332" transform="translate(166,88)"/>
<path d="M0 0 C1.48831242 0.00667405 2.97660807 0.01863442 4.46484375 0.03515625 C5.22345703 0.03966797 5.98207031 0.04417969 6.76367188 0.04882812 C8.64326246 0.06064945 10.52281274 0.07858547 12.40234375 0.09765625 C12.07234375 0.75765625 11.74234375 1.41765625 11.40234375 2.09765625 C10.08234375 2.09765625 8.76234375 2.09765625 7.40234375 2.09765625 C7.40234375 3.08765625 7.40234375 4.07765625 7.40234375 5.09765625 C8.39234375 5.09765625 9.38234375 5.09765625 10.40234375 5.09765625 C10.40234375 5.75765625 10.40234375 6.41765625 10.40234375 7.09765625 C9.08234375 7.09765625 7.76234375 7.09765625 6.40234375 7.09765625 C6.40234375 8.41765625 6.40234375 9.73765625 6.40234375 11.09765625 C7.72234375 11.09765625 9.04234375 11.09765625 10.40234375 11.09765625 C10.40234375 11.75765625 10.40234375 12.41765625 10.40234375 13.09765625 C8.09234375 13.09765625 5.78234375 13.09765625 3.40234375 13.09765625 C3.07234375 11.44765625 2.74234375 9.79765625 2.40234375 8.09765625 C0.75234375 8.09765625 -0.89765625 8.09765625 -2.59765625 8.09765625 C-2.59765625 9.41765625 -2.59765625 10.73765625 -2.59765625 12.09765625 C-3.25765625 12.09765625 -3.91765625 12.09765625 -4.59765625 12.09765625 C-4.62452904 10.28523573 -4.6439934 8.47270392 -4.66015625 6.66015625 C-4.67175781 5.65082031 -4.68335937 4.64148438 -4.6953125 3.6015625 C-4.54082312 -0.35954531 -4.11913216 0.1118114 0 0 Z " fill="#F7DFCE" transform="translate(94.59765625,162.90234375)"/>
<path d="M0 0 C3.60964568 3.60964568 5.698339 5.76009816 8 10 C6.35 10.33 4.7 10.66 3 11 C3.33 19.58 3.66 28.16 4 37 C2.68 37 1.36 37 0 37 C0 24.79 0 12.58 0 0 Z " fill="#ED7A21" transform="translate(144,87)"/>
<path d="M0 0 C11.83783531 -0.70556634 22.52526275 1.35907831 34 4 C34.80518066 4.18143555 35.61036133 4.36287109 36.43994141 4.54980469 C38.69257319 5.06136409 40.94073269 5.58832071 43.1875 6.125 C43.86474121 6.28323242 44.54198242 6.44146484 45.23974609 6.60449219 C46.84402943 7.0050382 48.42568153 7.49434845 50 8 C50.495 8.99 50.495 8.99 51 10 C48.36 9.34 45.72 8.68 43 8 C43 8.66 43 9.32 43 10 C43.99 10.33 44.98 10.66 46 11 C45.34 11.33 44.68 11.66 44 12 C42.1796875 11.36328125 42.1796875 11.36328125 39.875 10.3125 C27.20162194 5.04705639 13.48703987 3.06051998 0 1 C0 0.67 0 0.34 0 0 Z " fill="#248244" transform="translate(124,64)"/>
<path d="M0 0 C3.5625 0.1875 3.5625 0.1875 5.5625 2.1875 C6 5.5625 6 5.5625 5.5625 9.1875 C3.375 11.625 3.375 11.625 0.5625 13.1875 C-2.11328125 13.28515625 -2.11328125 13.28515625 -4.4375 13.1875 C-4.46436553 11.20840602 -4.48383375 9.22921029 -4.5 7.25 C-4.51160156 6.14785156 -4.52320313 5.04570312 -4.53515625 3.91015625 C-4.38987618 -0.14025222 -4.16005118 0.22691188 0 0 Z " fill="#ED8734" transform="translate(137.4375,162.8125)"/>
<path d="M0 0 C0.33 0 0.66 0 1 0 C1.67662 2.68533564 2.34146121 5.372725 3 8.0625 C3.19078125 8.81466797 3.3815625 9.56683594 3.578125 10.34179688 C4.7141096 15.02773336 5.20486266 19.17932546 5 24 C3.35 24.33 1.7 24.66 0 25 C-0.12117188 24.17757812 -0.24234375 23.35515625 -0.3671875 22.5078125 C-1.39985545 15.62865521 -2.55605295 8.8049845 -4 2 C-3.01 2.33 -2.02 2.66 -1 3 C-0.67 2.01 -0.34 1.02 0 0 Z " fill="#EE8639" transform="translate(105,100)"/>
<path d="M0 0 C5.94 0 11.88 0 18 0 C18.33 1.32 18.66 2.64 19 4 C18.01 4.33 17.02 4.66 16 5 C16 4.01 16 3.02 16 2 C15.01 2 14.02 2 13 2 C12.67 5.3 12.34 8.6 12 12 C11.34 12 10.68 12 10 12 C10.33 8.7 10.66 5.4 11 2 C9.02 2 7.04 2 5 2 C5 4.97 5 7.94 5 11 C4.01 11.33 3.02 11.66 2 12 C1.875 4.25 1.875 4.25 3 2 C2.01 2 1.02 2 0 2 C0 1.34 0 0.68 0 0 Z " fill="#ED8A3A" transform="translate(34,163)"/>
<path d="M0 0 C4.59037956 1.14759489 5.33669182 2.29039218 8 6 C8.66 4.02 9.32 2.04 10 0 C10.66 0 11.32 0 12 0 C11.34 3.96 10.68 7.92 10 12 C9.01 12.33 8.02 12.66 7 13 C7 11.68 7 10.36 7 9 C5.68 8.67 4.36 8.34 3 8 C3 9.32 3 10.64 3 12 C2.01 12.33 1.02 12.66 0 13 C0 8.71 0 4.42 0 0 Z " fill="#ED8638" transform="translate(66,163)"/>
<path d="M0 0 C2.5 0.25 2.5 0.25 4.5 2.25 C4.30824568 4.23146126 4.11027615 6.21505516 3.7890625 8.1796875 C3.40781248 10.56186284 3.40781248 10.56186284 3.5 14.25 C2.84 14.25 2.18 14.25 1.5 14.25 C0.84 12.93 0.18 11.61 -0.5 10.25 C-1.82 11.57 -3.14 12.89 -4.5 14.25 C-4.55389087 12.29196493 -4.59274217 10.33351091 -4.625 8.375 C-4.64820312 7.28445312 -4.67140625 6.19390625 -4.6953125 5.0703125 C-4.44023653 1.38701552 -3.71976026 0.37197603 0 0 Z " fill="#EE8F42" transform="translate(112.5,161.75)"/>
<path d="M0 0 C0.99 0 1.98 0 3 0 C3.16898112 5.35810969 2.56511422 10.19349172 1.5 15.4375 C1.35691406 16.16904297 1.21382813 16.90058594 1.06640625 17.65429688 C0.71678704 19.43735486 0.35922312 21.21885203 0 23 C-1.32 23 -2.64 23 -4 23 C-3.48400816 15.1177798 -1.9078547 7.65541695 0 0 Z " fill="#ED7B23" transform="translate(79,101)"/>
<path d="M0 0 C4.27210984 1.06802746 4.84168743 1.43878426 7 5 C7 5.66 7 6.32 7 7 C7.66 7 8.32 7 9 7 C9 5.02 9 3.04 9 1 C9.99 0.67 10.98 0.34 12 0 C11.34 3.96 10.68 7.92 10 12 C9.01 12 8.02 12 7 12 C5.3125 9.5 5.3125 9.5 4 7 C3.34 8.65 2.68 10.3 2 12 C1.34 12 0.68 12 0 12 C0 8.04 0 4.08 0 0 Z " fill="#ED8A3B" transform="translate(193,163)"/>
<path d="M0 0 C0 0.66 0 1.32 0 2 C-1.31484375 1.90912109 -1.31484375 1.90912109 -2.65625 1.81640625 C-15.09547449 0.99470951 -27.54362848 0.48521187 -40 0 C-40 -0.33 -40 -0.66 -40 -1 C-26.47635976 -2.82049003 -13.40544177 -2.34595231 0 0 Z " fill="#1CA847" transform="translate(117,69)"/>
<path d="M0 0 C2.64 0 5.28 0 8 0 C9.41933513 4.25800538 9.72651677 8.22911538 8 12.4375 C7.67 12.953125 7.34 13.46875 7 14 C5.02 13.34 3.04 12.68 1 12 C1 10.68 1 9.36 1 8 C2.32 8 3.64 8 5 8 C5 7.34 5 6.68 5 6 C4.01 6 3.02 6 2 6 C2 5.01 2 4.02 2 3 C3.32 2.67 4.64 2.34 6 2 C3.03 1.505 3.03 1.505 0 1 C0 0.67 0 0.34 0 0 Z " fill="#F9EBE0" transform="translate(100,162)"/>
<path d="M0 0 C0.99 0 1.98 0 3 0 C3.66 3.96 4.32 7.92 5 12 C4.01 12.33 3.02 12.66 2 13 C2 12.01 2 11.02 2 10 C-2.07964281 11.30155006 -2.07964281 11.30155006 -6 13 C-4.58707905 8.1725201 -2.57025846 4.2837641 0 0 Z " fill="#ED893A" transform="translate(153,163)"/>
<path d="M0 0 C0.66 0 1.32 0 2 0 C2.99 4.29 3.98 8.58 5 13 C3.68 12.67 2.36 12.34 1 12 C1 11.34 1 10.68 1 10 C-0.65 10 -2.3 10 -4 10 C-4.33 10.99 -4.66 11.98 -5 13 C-6.65 13 -8.3 13 -10 13 C-10.33 10.69 -10.66 8.38 -11 6 C-10.34 6 -9.68 6 -9 6 C-7.375 8 -7.375 8 -6 10 C-5.67 9.34 -5.34 8.68 -5 8 C-3.02 8 -1.04 8 1 8 C1 6.68 1 5.36 1 4 C0.34 4 -0.32 4 -1 4 C-0.67 2.68 -0.34 1.36 0 0 Z " fill="#ED8B41" transform="translate(59,163)"/>
<path d="M0 0 C0.94875 0.04125 1.8975 0.0825 2.875 0.125 C2.875 0.785 2.875 1.445 2.875 2.125 C1.225 2.125 -0.425 2.125 -2.125 2.125 C-1.444375 2.681875 -0.76375 3.23875 -0.0625 3.8125 C1.875 6.125 1.875 6.125 1.75 8.75 C0.875 11.125 0.875 11.125 -1.125 13.125 C-4.25 13.25 -4.25 13.25 -7.125 13.125 C-6.795 12.135 -6.465 11.145 -6.125 10.125 C-4.475 10.455 -2.825 10.785 -1.125 11.125 C-1.125 10.135 -1.125 9.145 -1.125 8.125 C-2.445 7.795 -3.765 7.465 -5.125 7.125 C-5.25 4.75 -5.25 4.75 -5.125 2.125 C-3.125 0.125 -3.125 0.125 0 0 Z " fill="#EE9046" transform="translate(85.125,162.875)"/>
<path d="M0 0 C1.134375 0.020625 2.26875 0.04125 3.4375 0.0625 C4.68201915 3.65777755 4.14353283 6.37543967 3.4375 10.0625 C3.4375 11.0525 3.4375 12.0425 3.4375 13.0625 C2.7775 13.0625 2.1175 13.0625 1.4375 13.0625 C0.15178571 5.63392857 0.15178571 5.63392857 1.4375 2.0625 C0.4475 2.5575 0.4475 2.5575 -0.5625 3.0625 C-1.17522305 5.15057 -1.17522305 5.15057 -1.5625 7.5625 C-2 10.03125 -2 10.03125 -2.5625 12.0625 C-3.5525 12.5575 -3.5525 12.5575 -4.5625 13.0625 C-4.58936553 11.08340602 -4.60883375 9.10421029 -4.625 7.125 C-4.63660156 6.02285156 -4.64820313 4.92070312 -4.66015625 3.78515625 C-4.51237367 -0.33502211 -4.25789233 0.07469987 0 0 Z " fill="#ED8C3E" transform="translate(164.5625,162.9375)"/>
<path d="M0 0 C0.66 0 1.32 0 2 0 C2.50615298 1.26839526 3.00469099 2.53983102 3.5 3.8125 C3.91765625 4.87404297 3.91765625 4.87404297 4.34375 5.95703125 C5 8 5 8 5 11 C2.03 11 -0.94 11 -4 11 C-3.39301257 6.87248551 -1.96189209 3.6678852 0 0 Z " fill="#FAEADF" transform="translate(57,97)"/>
<path d="M0 0 C7.60805252 -0.26488384 14.56783955 0.38478745 22 2 C23.33224609 2.28617188 23.33224609 2.28617188 24.69140625 2.578125 C26.79707597 3.03946109 28.89900875 3.51780529 31 4 C31 4.33 31 4.66 31 5 C23.60079975 5.34208631 16.58092988 4.97709315 9.3125 3.625 C8.61769531 3.49891357 7.92289062 3.37282715 7.20703125 3.24291992 C2.25940801 2.25940801 2.25940801 2.25940801 0 0 Z " fill="#45B45D" transform="translate(81,150)"/>
<path d="M0 0 C2.96052484 3.36423277 3.92289822 6.69159287 5 11 C1.7 11 -1.6 11 -5 11 C-5 10.34 -5 9.68 -5 9 C-4.34 9 -3.68 9 -3 9 C-2.87625 8.2575 -2.7525 7.515 -2.625 6.75 C-2.04513299 4.19858515 -1.26291261 2.2732427 0 0 Z " fill="#FBECE2" transform="translate(187,97)"/>
<path d="M0 0 C2.72957339 2.35735884 3.88893396 4.58133526 5 8 C5 8.99 5 9.98 5 11 C2.03 11 -0.94 11 -4 11 C-3.00424757 7.01699027 -1.65362053 3.73862033 0 0 Z " fill="#FBEEE5" transform="translate(126,97)"/>
<path d="M0 0 C2.72226766 2.72226766 3.78896139 5.36688418 5 9 C5.66 9.66 6.32 10.32 7 11 C6.01 13.64 5.02 16.28 4 19 C3.34 18.67 2.68 18.34 2 18 C0.55411237 13.35793971 -0.26129847 10.67809953 1 6 C0.72949547 3.99053778 0.40632091 1.98645776 0 0 Z " fill="#EE8A42" transform="translate(89,106)"/>
<path d="M0 0 C2.31 0 4.62 0 7 0 C6.67 0.66 6.34 1.32 6 2 C4.68 2 3.36 2 2 2 C2 2.99 2 3.98 2 5 C2.99 5 3.98 5 5 5 C5 5.66 5 6.32 5 7 C3.68 7 2.36 7 1 7 C1 8.32 1 9.64 1 11 C2.32 11 3.64 11 5 11 C5 11.66 5 12.32 5 13 C2.69 13 0.38 13 -2 13 C-2.19294408 8.17639811 -1.75747614 4.50353262 0 0 Z " fill="#ED893A" transform="translate(100,163)"/>
<path d="M0 0 C2.31 0 4.62 0 7 0 C6.67 0.66 6.34 1.32 6 2 C4.68 2 3.36 2 2 2 C2 2.99 2 3.98 2 5 C2.99 5 3.98 5 5 5 C5 5.66 5 6.32 5 7 C4.01 7.33 3.02 7.66 2 8 C1.67 8.99 1.34 9.98 1 11 C2.65 11 4.3 11 6 11 C5.67 11.66 5.34 12.32 5 13 C3.02 13 1.04 13 -1 13 C-1.07654536 8.48382401 -1.10228696 4.40914783 0 0 Z " fill="#EE8C40" transform="translate(184,163)"/>
<path d="M0 0 C0.66 0 1.32 0 2 0 C2.33 2.64 2.66 5.28 3 8 C4.32 8.33 5.64 8.66 7 9 C7 9.99 7 10.98 7 12 C6.21625 11.95875 5.4325 11.9175 4.625 11.875 C1.83883881 11.71271266 1.83883881 11.71271266 0 14 C-1.03115279 10.73086376 -0.9638984 8.13958652 -0.5625 4.75 C-0.46066406 3.85796875 -0.35882813 2.9659375 -0.25390625 2.046875 C-0.17011719 1.37140625 -0.08632812 0.6959375 0 0 Z " fill="#FBF4EF" transform="translate(77,162)"/>
<path d="M0 0 C7.9604911 -0.20382481 15.33057658 -0.30082703 23 2 C23.66 2.66 24.32 3.32 25 4 C19.34767292 4.18208839 14.12021301 3.49420813 8.5625 2.5 C7.73556641 2.35691406 6.90863281 2.21382813 6.05664062 2.06640625 C4.03684899 1.71615337 2.01828958 1.35880704 0 1 C0 0.67 0 0.34 0 0 Z " fill="#1B7E36" transform="translate(124,64)"/>
<path d="M0 0 C0.99 0.66 1.98 1.32 3 2 C3.29296875 4.6015625 3.29296875 4.6015625 3.1875 7.625 C3.16042969 8.62789062 3.13335937 9.63078125 3.10546875 10.6640625 C3.07066406 11.43492187 3.03585938 12.20578125 3 13 C2.34 13 1.68 13 1 13 C0.566875 11.88625 0.13375 10.7725 -0.3125 9.625 C-1.69911119 5.82487666 -1.69911119 5.82487666 -5 4 C-5 3.34 -5 2.68 -5 2 C-3.35 2 -1.7 2 0 2 C0 1.34 0 0.68 0 0 Z " fill="#F8E3D4" transform="translate(88,163)"/>
<path d="M0 0 C-1.39195915 2.7839183 -3.15575779 2.97898997 -6 4 C-6.33425735 6.37374861 -6.33425735 6.37374861 -6 9 C-4.0995533 10.84315671 -4.0995533 10.84315671 -2 12 C-3 13 -3 13 -5.5625 13.0625 C-6.366875 13.041875 -7.17125 13.02125 -8 13 C-9.54586876 9.90826248 -9.29359521 7.40570448 -9 4 C-6.40088873 0.24572816 -4.49476261 -0.49941807 0 0 Z " fill="#EE9147" transform="translate(180,163)"/>
<path d="M0 0 C2.97 0 5.94 0 9 0 C8.67 0.66 8.34 1.32 8 2 C6.68 2 5.36 2 4 2 C4 4.97 4 7.94 4 11 C3.01 11.33 2.02 11.66 1 12 C1.33 8.7 1.66 5.4 2 2 C1.34 2 0.68 2 0 2 C0 1.34 0 0.68 0 0 Z " fill="#ED8734" transform="translate(207,163)"/>
<path d="M0 0 C1.41805831 0.28482368 2.83440379 0.57818144 4.25 0.875 C5.03890625 1.03742188 5.8278125 1.19984375 6.640625 1.3671875 C8.96831144 1.99150075 10.89031952 2.84838542 13 4 C12.01 5.485 12.01 5.485 11 7 C6.4923533 6.46968862 3.58045212 4.74778884 0 2 C0 1.34 0 0.68 0 0 Z " fill="#208449" transform="translate(167,72)"/>
<path d="M0 0 C0.99 0 1.98 0 3 0 C3.5745952 3.73486879 4 7.21293268 4 11 C3.34 11 2.68 11 2 11 C1.34 9.68 0.68 8.36 0 7 C-0.66 7.66 -1.32 8.32 -2 9 C-1.125 2.25 -1.125 2.25 0 0 Z " fill="#F2B280" transform="translate(112,165)"/>
<path d="M0 0 C2.97 0 5.94 0 9 0 C8.67 0.66 8.34 1.32 8 2 C7.01 2 6.02 2 5 2 C4.96261719 2.62648437 4.92523438 3.25296875 4.88671875 3.8984375 C4.82097656 4.71570313 4.75523438 5.53296875 4.6875 6.375 C4.62949219 7.18710938 4.57148437 7.99921875 4.51171875 8.8359375 C4 11 4 11 1 13 C1.66 9.37 2.32 5.74 3 2 C2.01 2 1.02 2 0 2 C0 1.34 0 0.68 0 0 Z " fill="#ED8636" transform="translate(120,163)"/>
<path d="M0 0 C2.0343459 1.41519715 2.90410393 2.54982123 3.421875 4.98046875 C3.66273952 6.98176954 3.83532741 8.9909944 4 11 C3.01 11 2.02 11 1 11 C-2.22265625 5.7265625 -2.22265625 5.7265625 -3 4 C-2.67 3.34 -2.34 2.68 -2 2 C-1.34 2.33 -0.68 2.66 0 3 C0 2.01 0 1.02 0 0 Z " fill="#EE883C" transform="translate(198,113)"/>
<path d="M0 0 C0.33 0 0.66 0 1 0 C0.7357513 5.37305699 0.7357513 5.37305699 0 8 C-2.5625 10 -2.5625 10 -5 11 C-5.33 9.35 -5.66 7.7 -6 6 C-5.01 5.67 -4.02 5.34 -3 5 C-1.8499169 3.03327085 -1.8499169 3.03327085 -1 1 C-0.67 0.67 -0.34 0.34 0 0 Z " fill="#F5C9A9" transform="translate(183,163)"/>
<path d="M0 0 C1.134375 0.020625 2.26875 0.04125 3.4375 0.0625 C3.1075 0.7225 2.7775 1.3825 2.4375 2.0625 C1.1175 2.0625 -0.2025 2.0625 -1.5625 2.0625 C-1.5625 3.3825 -1.5625 4.7025 -1.5625 6.0625 C-0.9025 6.3925 -0.2425 6.7225 0.4375 7.0625 C-0.5525 7.0625 -1.5425 7.0625 -2.5625 7.0625 C-2.5625 8.7125 -2.5625 10.3625 -2.5625 12.0625 C-3.2225 12.0625 -3.8825 12.0625 -4.5625 12.0625 C-4.58937279 10.25007948 -4.60883715 8.43754767 -4.625 6.625 C-4.63660156 5.61566406 -4.64820312 4.60632813 -4.66015625 3.56640625 C-4.50618986 -0.38129207 -4.09874205 0.07190776 0 0 Z " fill="#ED832F" transform="translate(94.5625,162.9375)"/>
<path d="M0 0 C0.33 1.32 0.66 2.64 1 4 C-1.83556587 5.41778293 -3.9908706 4.86257622 -7.125 4.5625 C-8.22070312 4.46066406 -9.31640625 4.35882813 -10.4453125 4.25390625 C-11.28835937 4.17011719 -12.13140625 4.08632812 -13 4 C-12.34 3.01 -11.68 2.02 -11 1 C-7.5625 0.8125 -7.5625 0.8125 -4 1 C-3.01 1 -2.02 1 -1 1 C-0.67 0.67 -0.34 0.34 0 0 Z " fill="#ED7723" transform="translate(134,107)"/>
<path d="M0 0 C0.99 0.33 1.98 0.66 3 1 C1.71451591 2.33929505 0.42141845 3.67128643 -0.875 5 C-1.59429687 5.7425 -2.31359375 6.485 -3.0546875 7.25 C-5 9 -5 9 -7 9 C-7 9.99 -7 10.98 -7 12 C-7.66 12 -8.32 12 -9 12 C-7.50948318 7.39294801 -5.21457741 4.53603516 -2 1 C-1.34 0.67 -0.68 0.34 0 0 Z " fill="#20A948" transform="translate(34,80)"/>
<path d="M0 0 C1.98 0.495 1.98 0.495 4 1 C4.125 3.875 4.125 3.875 4 7 C3.34 7.66 2.68 8.32 2 9 C1.01 9 0.02 9 -1 9 C-0.67 6.03 -0.34 3.06 0 0 Z " fill="#FAEADF" transform="translate(137,165)"/>
<path d="M0 0 C0.66 0.66 1.32 1.32 2 2 C0.68 4.97 -0.64 7.94 -2 11 C-2.99 10.67 -3.98 10.34 -5 10 C-4.125 5.25 -4.125 5.25 -3 3 C-2.34 3 -1.68 3 -1 3 C-0.67 2.01 -0.34 1.02 0 0 Z " fill="#ED7B24" transform="translate(48,113)"/>
<path d="M0 0 C1.98 0.495 1.98 0.495 4 1 C3.67 3.97 3.34 6.94 3 10 C1.68 10 0.36 10 -1 10 C-0.67 6.7 -0.34 3.4 0 0 Z " fill="#ED8030" transform="translate(76,114)"/>
<path d="M0 0 C2 1 2 1 2.921875 3.65234375 C3.19515625 4.73644531 3.4684375 5.82054688 3.75 6.9375 C4.03359375 8.01902344 4.3171875 9.10054687 4.609375 10.21484375 C4.73828125 11.13394531 4.8671875 12.05304688 5 13 C4.34 13.66 3.68 14.32 3 15 C0.99501684 10.64134095 -0.55024543 6.83486166 -1 2 C-0.67 1.34 -0.34 0.68 0 0 Z " fill="#ED771B" transform="translate(86,101)"/>
<path d="M0 0 C0.33 0 0.66 0 1 0 C1.98248524 4.0527516 2.08159574 7.83861737 2 12 C0.35 12.33 -1.3 12.66 -3 13 C-3 10.36 -3 7.72 -3 5 C-2.67 5 -2.34 5 -2 5 C-1.87625 5.804375 -1.7525 6.60875 -1.625 7.4375 C-1.41875 8.283125 -1.2125 9.12875 -1 10 C-0.34 10.33 0.32 10.66 1 11 C0.67 10.01 0.34 9.02 0 8 C-0.12781786 5.32605036 -0.04391871 2.67904143 0 0 Z " fill="#F1B185" transform="translate(108,112)"/>
<path d="M0 0 C2.625 0.9375 2.625 0.9375 5 2 C4.67 3.32 4.34 4.64 4 6 C1.69 5.34 -0.62 4.68 -3 4 C-2.67 3.01 -2.34 2.02 -2 1 C-1.34 0.67 -0.68 0.34 0 0 Z " fill="#25AB4E" transform="translate(64,140)"/>
<path d="M0 0 C3.77545388 1.09068668 6.47043472 1.9083091 9 5 C7.1875 6.0625 7.1875 6.0625 5 7 C4.01 6.67 3.02 6.34 2 6 C0.8125 2.9375 0.8125 2.9375 0 0 Z " fill="#10A43B" transform="translate(55,136)"/>
<path d="M0 0 C0.66 0.33 1.32 0.66 2 1 C-1.63 4.63 -5.26 8.26 -9 12 C-9 8.47601214 -8.44884893 7.98495633 -6.1875 5.4375 C-5.40439453 4.53837891 -5.40439453 4.53837891 -4.60546875 3.62109375 C-3 2 -3 2 0 0 Z " fill="#D6EDDC" transform="translate(43,83)"/>
<path d="M0 0 C0.33 0.66 0.66 1.32 1 2 C-4.28 1.34 -9.56 0.68 -15 0 C-15 -0.33 -15 -0.66 -15 -1 C-9.73629256 -2.34966857 -5.07513384 -1.82704818 0 0 Z " fill="#2CAC52" transform="translate(107,77)"/>
<path d="M0 0 C0.66 0 1.32 0 2 0 C3.625 2 3.625 2 5 4 C5.66 3.34 6.32 2.68 7 2 C6.67 3.65 6.34 5.3 6 7 C4.35 7 2.7 7 1 7 C0.67 4.69 0.34 2.38 0 0 Z " fill="#EE944E" transform="translate(48,169)"/>
<path d="M0 0 C1.39195915 4.17587745 -0.17676781 6.13474776 -2 10 C-2.99 9.67 -3.98 9.34 -5 9 C-4.67 7.35 -4.34 5.7 -4 4 C-3.34 4 -2.68 4 -2 4 C-1.34 2.68 -0.68 1.36 0 0 Z " fill="#EE781F" transform="translate(98,106)"/>
<path d="M0 0 C0.66 0 1.32 0 2 0 C1.34 3.96 0.68 7.92 0 12 C-0.33 10.68 -0.66 9.36 -1 8 C-1.66 8 -2.32 8 -3 8 C-1.125 1.125 -1.125 1.125 0 0 Z " fill="#EF9C5D" transform="translate(76,163)"/>
<path d="M0 0 C1.5625 1.1875 1.5625 1.1875 3 3 C2.6875 5.6875 2.6875 5.6875 2 8 C1.01 7.67 0.02 7.34 -1 7 C-1.8125 5.125 -1.8125 5.125 -2 3 C-1.34 2.01 -0.68 1.02 0 0 Z " fill="#EE893E" transform="translate(70,116)"/>
<path d="M0 0 C1.21236328 0.01353516 1.21236328 0.01353516 2.44921875 0.02734375 C3.37154297 0.04474609 3.37154297 0.04474609 4.3125 0.0625 C4.3125 1.0525 4.3125 2.0425 4.3125 3.0625 C0.3525 3.0625 -3.6075 3.0625 -7.6875 3.0625 C-7.6875 2.4025 -7.6875 1.7425 -7.6875 1.0625 C-4.80538698 0.10179566 -2.98899956 -0.04331883 0 0 Z " fill="#ABCBB7" transform="translate(126.6875,62.9375)"/>
<path d="M0 0 C1 4 1 4 0 6 C0.99 5.67 1.98 5.34 3 5 C2.67 6.65 2.34 8.3 2 10 C0.35 9.67 -1.3 9.34 -3 9 C-2.01 6.03 -1.02 3.06 0 0 Z " fill="#EF995A" transform="translate(182,96)"/>
<path d="M0 0 C7.42857143 -0.28571429 7.42857143 -0.28571429 11 2 C9 3 9 3 5.875 2.0625 C4.92625 1.711875 3.9775 1.36125 3 1 C3 1.66 3 2.32 3 3 C3.99 3.33 4.98 3.66 6 4 C5.01 4.495 5.01 4.495 4 5 C1.875 4.0625 1.875 4.0625 0 3 C0 2.01 0 1.02 0 0 Z " fill="#529C6D" transform="translate(164,71)"/>
<path d="M0 0 C0.33 1.32 0.66 2.64 1 4 C2.32 4.33 3.64 4.66 5 5 C4.67 5.66 4.34 6.32 4 7 C3.34 6.67 2.68 6.34 2 6 C2 7.32 2 8.64 2 10 C1.01 10.33 0.02 10.66 -1 11 C-0.67 7.37 -0.34 3.74 0 0 Z " fill="#F1AD77" transform="translate(67,165)"/>
<path d="M0 0 C2.29013653 3.4352048 2.17842973 4.985331 2 9 C1.01 9.33 0.02 9.66 -1 10 C-1.125 2.25 -1.125 2.25 0 0 Z " fill="#EF9653" transform="translate(37,165)"/>
<path d="M0 0 C0.66 0 1.32 0 2 0 C1.34 3.96 0.68 7.92 0 12 C-0.33 10.68 -0.66 9.36 -1 8 C-1.66 7.67 -2.32 7.34 -3 7 C-2.34 7 -1.68 7 -1 7 C-1.020625 6.030625 -1.04125 5.06125 -1.0625 4.0625 C-1 1 -1 1 0 0 Z " fill="#EF9F64" transform="translate(203,163)"/>
<path d="M0 0 C8.57142857 -0.28571429 8.57142857 -0.28571429 12 2 C12 2.33 12 2.66 12 3 C8.37 3 4.74 3 1 3 C0.67 2.01 0.34 1.02 0 0 Z " fill="#9AD1A7" transform="translate(106,153)"/>
<path d="M0 0 C0.66 0 1.32 0 2 0 C2.33 2.97 2.66 5.94 3 9 C2.67 8.01 2.34 7.02 2 6 C1.01 6 0.02 6 -1 6 C-1.33 7.32 -1.66 8.64 -2 10 C-3 8 -3 8 -2.44140625 6.0546875 C-2.15136719 5.33539063 -1.86132812 4.61609375 -1.5625 3.875 C-1.27503906 3.15054688 -0.98757812 2.42609375 -0.69140625 1.6796875 C-0.46324219 1.12539062 -0.23507813 0.57109375 0 0 Z " fill="#EF9E63" transform="translate(102,87)"/>
<path d="M0 0 C0.66 0 1.32 0 2 0 C1.51171875 6.0546875 1.51171875 6.0546875 1 8 C0.01 8.66 -0.98 9.32 -2 10 C-1.85950482 8.52031676 -1.71245174 7.04125484 -1.5625 5.5625 C-1.48128906 4.73878906 -1.40007812 3.91507813 -1.31640625 3.06640625 C-1 1 -1 1 0 0 Z " fill="#F7DBC8" transform="translate(164,165)"/>
<path d="M0 0 C2.31 0.66 4.62 1.32 7 2 C6.01 3.485 6.01 3.485 5 5 C3.02 4.34 1.04 3.68 -1 3 C-0.67 2.01 -0.34 1.02 0 0 Z " fill="#0FA53D" transform="translate(69,143)"/>
<path d="M0 0 C1.5625 1.1875 1.5625 1.1875 3 3 C2.6875 5.6875 2.6875 5.6875 2 8 C1.34 8 0.68 8 0 8 C-0.38063221 5.6739143 -0.71269945 3.33944736 -1 1 C-0.67 0.67 -0.34 0.34 0 0 Z " fill="#ED7924" transform="translate(67,111)"/>
<path d="M0 0 C1.625 1.6875 1.625 1.6875 3 4 C2.1875 6.75 2.1875 6.75 1 9 C-0.32 8.67 -1.64 8.34 -3 8 C-2.690625 7.236875 -2.38125 6.47375 -2.0625 5.6875 C-1.32106407 3.81210323 -0.63771783 1.91315348 0 0 Z " fill="#EE8A41" transform="translate(122,96)"/>
<path d="M0 0 C1.73543126 2.60314689 2.61121812 3.98694043 3 7 C2.34 7.66 1.68 8.32 1 9 C-0.5 7.625 -0.5 7.625 -2 6 C-2 5.34 -2 4.68 -2 4 C-1.34 4 -0.68 4 0 4 C0 2.68 0 1.36 0 0 Z " fill="#EE883E" transform="translate(190,93)"/>
<path d="M0 0 C0.66 0 1.32 0 2 0 C2.66 2.31 3.32 4.62 4 7 C1.03 6.505 1.03 6.505 -2 6 C-1.34 4.02 -0.68 2.04 0 0 Z " fill="#EF914D" transform="translate(57,87)"/>
<path d="M0 0 C0.99 0 1.98 0 3 0 C3.33 1.98 3.66 3.96 4 6 C3.67 5.34 3.34 4.68 3 4 C2.34 4 1.68 4 1 4 C0.34 5.32 -0.32 6.64 -1 8 C-0.67 5.36 -0.34 2.72 0 0 Z " fill="#F5D7C1" transform="translate(47,165)"/>
<path d="M0 0 C2.475 0.99 2.475 0.99 5 2 C4.67 3.32 4.34 4.64 4 6 C3.67 5.34 3.34 4.68 3 4 C1.68 4 0.36 4 -1 4 C-0.67 2.68 -0.34 1.36 0 0 Z " fill="#ED751D" transform="translate(56,92)"/>
<path d="M0 0 C0.33 0.66 0.66 1.32 1 2 C1.66 2 2.32 2 3 2 C3 3.32 3 4.64 3 6 C1.35 6 -0.3 6 -2 6 C-1.34 4.02 -0.68 2.04 0 0 Z " fill="#F3C5A5" transform="translate(57,165)"/>
<path d="M0 0 C2.97 0 5.94 0 9 0 C8.67 0.66 8.34 1.32 8 2 C7.01 2 6.02 2 5 2 C4.67 2.99 4.34 3.98 4 5 C4 4.01 4 3.02 4 2 C2.68 2 1.36 2 0 2 C0 1.34 0 0.68 0 0 Z " fill="#ED832F" transform="translate(34,163)"/>
<path d="M0 0 C4.62 0 9.24 0 14 0 C13.67 0.66 13.34 1.32 13 2 C11.86111328 1.98259766 11.86111328 1.98259766 10.69921875 1.96484375 C9.70535156 1.95582031 8.71148437 1.94679688 7.6875 1.9375 C6.70136719 1.92589844 5.71523438 1.91429688 4.69921875 1.90234375 C1.90036151 1.87670138 1.90036151 1.87670138 -1 3 C-0.67 2.01 -0.34 1.02 0 0 Z " fill="#FAEEE3" transform="translate(51,112)"/>
<path d="M0 0 C0.33 0 0.66 0 1 0 C1 1.65 1 3.3 1 5 C2.65 5 4.3 5 6 5 C5.67 5.66 5.34 6.32 5 7 C3.02 7 1.04 7 -1 7 C-0.67 4.69 -0.34 2.38 0 0 Z " fill="#EC7D24" transform="translate(184,169)"/>
<path d="M0 0 C0.33 0 0.66 0 1 0 C1.33 3.63 1.66 7.26 2 11 C1.34 11 0.68 11 0 11 C-0.33 11.66 -0.66 12.32 -1 13 C-1.02686553 11.02090602 -1.04633375 9.04171029 -1.0625 7.0625 C-1.07410156 5.96035156 -1.08570313 4.85820312 -1.09765625 3.72265625 C-1 1 -1 1 0 0 Z " fill="#F1B589" transform="translate(134,163)"/>
<path d="M0 0 C0.66 0 1.32 0 2 0 C2.33 2.64 2.66 5.28 3 8 C2.01 8.33 1.02 8.66 0 9 C0 6.03 0 3.06 0 0 Z " fill="#F9EADF" transform="translate(77,162)"/>
<path d="M0 0 C2 2 2 2 2.125 4.625 C2.08375 5.40875 2.0425 6.1925 2 7 C0.68 6.67 -0.64 6.34 -2 6 C-1.34 4.02 -0.68 2.04 0 0 Z " fill="#F2C2A3" transform="translate(152,164)"/>
<path d="M0 0 C5.75 0.75 5.75 0.75 8 3 C5.6875 3.625 5.6875 3.625 3 4 C2.01 3.34 1.02 2.68 0 2 C0 1.34 0 0.68 0 0 Z " fill="#01722C" transform="translate(167,72)"/>
<path d="M0 0 C1.65 0.33 3.3 0.66 5 1 C5 1.66 5 2.32 5 3 C4.21625 3.309375 3.4325 3.61875 2.625 3.9375 C0.07669872 4.92875038 0.07669872 4.92875038 -2 6 C-1.34 4.02 -0.68 2.04 0 0 Z " fill="#EE9A60" transform="translate(149,170)"/>
<path d="M0 0 C1.5 1.3125 1.5 1.3125 3 3 C3 3.99 3 4.98 3 6 C1.35 6.33 -0.3 6.66 -2 7 C-1.34 4.69 -0.68 2.38 0 0 Z " fill="#EE893F" transform="translate(177,108)"/>
<path d="M0 0 C0.99 0.33 1.98 0.66 3 1 C3.33 1.99 3.66 2.98 4 4 C3.67 4.66 3.34 5.32 3 6 C1.68 5.67 0.36 5.34 -1 5 C-0.67 3.35 -0.34 1.7 0 0 Z " fill="#F4CDB1" transform="translate(93,165)"/>
<path d="M0 0 C1.4540625 0.0309375 1.4540625 0.0309375 2.9375 0.0625 C2.9375 0.7225 2.9375 1.3825 2.9375 2.0625 C1.2875 2.0625 -0.3625 2.0625 -2.0625 2.0625 C-1.7325 3.0525 -1.4025 4.0425 -1.0625 5.0625 C-1.7225 5.0625 -2.3825 5.0625 -3.0625 5.0625 C-3.625 3.125 -3.625 3.125 -4.0625 1.0625 C-3.0625 0.0625 -3.0625 0.0625 0 0 Z " fill="#F1AF7D" transform="translate(85.0625,162.9375)"/>
<path d="M0 0 C0.99 0.495 0.99 0.495 2 1 C2.40729228 3.32156597 2.74438677 5.6568787 3 8 C2.01 8 1.02 8 0 8 C0 5.36 0 2.72 0 0 Z " fill="#ED822F" transform="translate(81,87)"/>
</svg>
