<?xml version="1.0" encoding="UTF-8"?>
<svg version="1.1" xmlns="http://www.w3.org/2000/svg" width="240" height="240">
<path d="M0 0 C79.2 0 158.4 0 240 0 C240 79.2 240 158.4 240 240 C160.8 240 81.6 240 0 240 C0 160.8 0 81.6 0 0 Z " fill="#FDFDFD" transform="translate(0,0)"/>
<path d="M0 0 C1.72353232 -0.21732807 3.4550537 -0.37184017 5.1875 -0.5 C6.15042969 -0.5928125 7.11335938 -0.685625 8.10546875 -0.78125 C11.42113095 0.11366557 11.75518553 0.58511388 13.5625 3.3515625 C16.34732575 8.35636989 18.60336841 13.59660906 20.8125 18.875 C21.21919922 19.82375 21.62589844 20.7725 22.04492188 21.75 C25 28.72299107 25 28.72299107 25 31 C27.97379403 28.23129521 29.93235124 25.47740928 32 22 C32.99 21.505 32.99 21.505 34 21 C30.7 21.33 27.4 21.66 24 22 C23.01 19.525 23.01 19.525 22 17 C25.70748762 12.46721547 31.50536892 12.01962226 37 11 C39.41132412 10.80709407 41.581528 10.83510418 44 11 C45.6277833 17.14778871 46.20190089 22.64012196 46 29 C43.625 29.625 43.625 29.625 41 30 C38.64046906 27.64046906 38.50858587 26.22104383 38 23 C37.01 24.485 37.01 24.485 36 26 C35.51402344 26.7115625 35.02804688 27.423125 34.52734375 28.15625 C34.00269531 28.9296875 33.47804688 29.703125 32.9375 30.5 C32.41027344 31.2734375 31.88304687 32.046875 31.33984375 32.84375 C29.8556304 35.04627061 29.8556304 35.04627061 29 38 C29.33 38.99 29.66 39.98 30 41 C31 44 31 44 30 47 C27.41795236 48.91262788 26.2234285 49.02792856 23 48.625 C22.01 48.41875 21.02 48.2125 20 48 C15.66907161 48 14.3703436 48.69209016 10.6875 50.75 C-4.85504368 58.66188593 -23.30798112 61.07178273 -40.234375 56.06640625 C-45.35119246 54.09339613 -50.19474511 51.63266625 -55 49 C-53 48 -53 48 -50.86328125 48.70703125 C-50.02152344 49.07183594 -49.17976563 49.43664062 -48.3125 49.8125 C-33.07980215 56.374642 -14.99825545 56.22336329 0.55859375 50.578125 C4.98289605 48.54927355 8.9919585 46.1673285 12.9609375 43.35546875 C15 42 15 42 17 42 C16.01 39.03 16.01 39.03 15 36 C9.72 36 4.44 36 -1 36 C-1.268125 37.4025 -1.53625 38.805 -1.8125 40.25 C-2.59399596 43.82014343 -3.41636429 46.2989263 -6 49 C-9.375 48.6875 -9.375 48.6875 -13 48 C-15 45 -15 45 -14.74316406 42.14428711 C-14.0481409 39.20368156 -13.1989056 36.50688757 -12.109375 33.69140625 C-11.54271118 32.20930664 -11.54271118 32.20930664 -10.96459961 30.69726562 C-10.56378174 29.66279297 -10.16296387 28.62832031 -9.75 27.5625 C-6.26680563 18.4401448 -2.96692911 9.30333549 0 0 Z " fill="#E55116" transform="translate(164,126)"/>
<path d="M0 0 C1.39025391 -0.02126953 1.39025391 -0.02126953 2.80859375 -0.04296875 C5.74652963 0.20290106 7.8598695 1.05912902 10.5625 2.1875 C13.24020941 1.87613844 15.15806732 1.38971634 17.5625 0.1875 C19.51799256 0.06492539 21.47820618 0.01197612 23.4375 0 C24.48679688 -0.01417969 25.53609375 -0.02835937 26.6171875 -0.04296875 C29.49797071 0.18245063 31.12490208 0.69785683 33.5625 2.1875 C33.49160156 3.19554688 33.42070313 4.20359375 33.34765625 5.2421875 C33.5867267 9.6323904 34.89634878 12.5662718 37 16.3125 C41.29289926 24.15022895 41.29289926 24.15022895 41.5625 28.1875 C40.55461591 31.08959842 39.07188771 33.48889774 37.5625 36.1875 C34.5925 36.1875 31.6225 36.1875 28.5625 36.1875 C28.2325 28.9275 27.9025 21.6675 27.5625 14.1875 C25.0875 13.6925 25.0875 13.6925 22.5625 13.1875 C20.08192372 15.66807628 20.27230995 16.54942464 20.1484375 19.9765625 C20.10976562 20.91757813 20.07109375 21.85859375 20.03125 22.828125 C19.98484375 24.30539063 19.98484375 24.30539063 19.9375 25.8125 C19.89882812 26.80507812 19.86015625 27.79765625 19.8203125 28.8203125 C19.72587339 31.27572942 19.64309119 33.73158957 19.5625 36.1875 C14.6125 36.1875 9.6625 36.1875 4.5625 36.1875 C4.48902344 33.94839844 4.48902344 33.94839844 4.4140625 31.6640625 C4.33904173 29.71352237 4.2634936 27.76300247 4.1875 25.8125 C4.1565625 24.82765625 4.125625 23.8428125 4.09375 22.828125 C4.05507813 21.88710937 4.01640625 20.94609375 3.9765625 19.9765625 C3.92943115 18.67259521 3.92943115 18.67259521 3.88134766 17.34228516 C3.75020567 14.97788206 3.75020567 14.97788206 1.5625 13.1875 C-0.0875 13.5175 -1.7375 13.8475 -3.4375 14.1875 C-3.7675 21.4475 -4.0975 28.7075 -4.4375 36.1875 C-9.3875 36.1875 -14.3375 36.1875 -19.4375 36.1875 C-19.51903401 32.85366498 -19.57825667 29.52185765 -19.625 26.1875 C-19.66270508 24.78564453 -19.66270508 24.78564453 -19.70117188 23.35546875 C-19.77296717 16.51098435 -19.25939734 10.6379406 -14.75390625 5.12890625 C-13.88572266 4.44634766 -13.88572266 4.44634766 -13 3.75 C-12.42378906 3.27691406 -11.84757812 2.80382812 -11.25390625 2.31640625 C-7.66449982 0.08557086 -4.15446401 0.02881043 0 0 Z " fill="#E65015" transform="translate(49.4375,84.8125)"/>
<path d="M0 0 C9 0 9 0 11.0234375 1.2578125 C11.46945313 1.87398438 11.91546875 2.49015625 12.375 3.125 C12.92285156 3.84429687 13.47070312 4.56359375 14.03515625 5.3046875 C14.68355469 6.19414062 15.33195312 7.08359375 16 8 C16.93087148 9.1735157 17.8675041 10.34247517 18.80859375 11.5078125 C27.33810814 22.11905022 27.33810814 22.11905022 29 26 C29.66 26 30.32 26 31 26 C30.98952637 25.28344238 30.97905273 24.56688477 30.96826172 23.82861328 C30.92678701 20.59411095 30.90070108 17.35966447 30.875 14.125 C30.85824219 12.99707031 30.84148438 11.86914062 30.82421875 10.70703125 C30.81777344 9.63066406 30.81132813 8.55429688 30.8046875 7.4453125 C30.79421387 6.45031738 30.78374023 5.45532227 30.77294922 4.43017578 C31 2 31 2 33 0 C35.1640625 -0.1953125 35.1640625 -0.1953125 37.625 -0.125 C38.85089844 -0.09792969 38.85089844 -0.09792969 40.1015625 -0.0703125 C41.04128906 -0.03550781 41.04128906 -0.03550781 42 0 C42.050652 6.35372519 42.08571322 12.70739844 42.10986328 19.0612793 C42.11992951 21.22340847 42.13358354 23.385524 42.15087891 25.54760742 C42.17509978 28.65286625 42.18647681 31.7579453 42.1953125 34.86328125 C42.20563507 35.83211746 42.21595764 36.80095367 42.22659302 37.79914856 C42.22681961 39.15020943 42.22681961 39.15020943 42.22705078 40.52856445 C42.231492 41.32132278 42.23593323 42.11408112 42.24050903 42.93086243 C42 45 42 45 40 48 C36.52200325 48.85424482 35.27743432 49.13014977 32 48 C28.98956612 45.23127979 26.65986264 42.05543105 24.27539062 38.74267578 C22.40087427 36.18136304 20.42312155 33.70526356 18.45043945 31.21923828 C16.2856004 28.49091926 14.14380099 25.74486669 12 23 C11.98018066 23.65073486 11.96036133 24.30146973 11.93994141 24.97192383 C11.84470701 27.91919151 11.73502182 30.86574885 11.625 33.8125 C11.57859375 35.34874023 11.57859375 35.34874023 11.53125 36.91601562 C11.47324219 38.39038086 11.47324219 38.39038086 11.4140625 39.89453125 C11.3826416 40.80050049 11.3512207 41.70646973 11.31884766 42.63989258 C11 45 11 45 9 48 C6.03 48 3.06 48 0 48 C0 32.16 0 16.32 0 0 Z " fill="#273885" transform="translate(30,126)"/>
<path d="M0 0 C3.54030044 2.62993747 5.64904113 6.30563607 8 10 C8.49371094 9.36191406 8.98742187 8.72382812 9.49609375 8.06640625 C10.45708984 6.82697266 10.45708984 6.82697266 11.4375 5.5625 C12.07558594 4.73878906 12.71367188 3.91507812 13.37109375 3.06640625 C15 1 15 1 16 0 C18.92942542 -0.28814021 21.14948367 -0.48613457 24 0 C26.5625 2.125 26.5625 2.125 28 5 C27.43017833 12.16900641 23.66129453 17.85848862 20 23.875 C19.65106689 24.45192596 19.30213379 25.02885193 18.94262695 25.6232605 C13.12858623 34.98248428 13.12858623 34.98248428 8.578125 37.15771484 C3.51017634 38.16006517 -1.07538236 37.37133536 -6 36 C-5.45276317 32.62537285 -4.9451 30.91765 -3 28 C-3.37209712 22.41854319 -6.7417735 17.9612029 -9.50390625 13.25390625 C-11.09217919 9.79951628 -11.42783691 7.74892095 -11 4 C-8.05899778 -0.47032338 -5.13105401 -0.73300772 0 0 Z " fill="#243683" transform="translate(96,85)"/>
<path d="M0 0 C5.82071622 -0.02464638 11.64140234 -0.0428343 17.4621582 -0.05493164 C19.44393441 -0.05997267 21.42570689 -0.06680538 23.4074707 -0.07543945 C26.24952109 -0.08751515 29.09152247 -0.09323045 31.93359375 -0.09765625 C32.82525742 -0.10281754 33.71692108 -0.10797882 34.63560486 -0.11329651 C36.75740601 -0.11349177 38.8791078 -0.0621003 41 0 C42 1 42 1 42.125 4.5 C42 8 42 8 41 9 C38.81360547 9.07258946 36.62499611 9.08373783 34.4375 9.0625 C32.64119141 9.04896484 32.64119141 9.04896484 30.80859375 9.03515625 C29.88175781 9.02355469 28.95492187 9.01195312 28 9 C28.01571045 10.07483643 28.0314209 11.14967285 28.04760742 12.25708008 C28.10189111 16.24333203 28.13634421 20.22955128 28.16479492 24.21606445 C28.17988516 25.94170627 28.20035975 27.66730972 28.22631836 29.39282227 C28.26269209 31.87265488 28.27972359 34.35198064 28.29296875 36.83203125 C28.31619453 37.98998955 28.31619453 37.98998955 28.33988953 39.17134094 C28.34057617 41.35473633 28.34057617 41.35473633 28 45 C27.01 45.99 26.02 46.98 25 48 C21.37 48 17.74 48 14 48 C14 35.13 14 22.26 14 9 C10.04 9 6.08 9 2 9 C0 7 0 7 -0.125 3.375 C-0.08375 2.26125 -0.0425 1.1475 0 0 Z " fill="#E54E12" transform="translate(105,126)"/>
<path d="M0 0 C1.6277833 6.14778871 2.20190089 11.64012196 2 18 C-0.375 18.625 -0.375 18.625 -3 19 C-5.35953094 16.64046906 -5.49141413 15.22104383 -6 12 C-6.66 12.99 -7.32 13.98 -8 15 C-8.48597656 15.7115625 -8.97195312 16.423125 -9.47265625 17.15625 C-9.99730469 17.9296875 -10.52195312 18.703125 -11.0625 19.5 C-11.58972656 20.2734375 -12.11695313 21.046875 -12.66015625 21.84375 C-14.1443696 24.04627061 -14.1443696 24.04627061 -15 27 C-14.505 28.485 -14.505 28.485 -14 30 C-13 33 -13 33 -14 36 C-16.58204764 37.91262788 -17.7765715 38.02792856 -21 37.625 C-21.99 37.41875 -22.98 37.2125 -24 37 C-28.33092839 37 -29.6296564 37.69209016 -33.3125 39.75 C-48.85504368 47.66188593 -67.30798112 50.07178273 -84.234375 45.06640625 C-89.35119246 43.09339613 -94.19474511 40.63266625 -99 38 C-97 37 -97 37 -94.86328125 37.70703125 C-94.02152344 38.07183594 -93.17976563 38.43664062 -92.3125 38.8125 C-77.48353804 45.20071534 -58.76853616 45.62003367 -43.61328125 39.671875 C-30.5133573 33.61050478 -20.14001894 25.26376134 -12.97265625 12.49609375 C-12 11 -12 11 -10 10 C-13.3 10.33 -16.6 10.66 -20 11 C-20.99 8.525 -20.99 8.525 -22 6 C-17.18729119 0.11596903 -7.16337834 -0.48841216 0 0 Z " fill="#223583" transform="translate(208,137)"/>
<path d="M0 0 C1.47919922 0.06960937 1.47919922 0.06960937 2.98828125 0.140625 C3.98214844 0.17671875 4.97601563 0.2128125 6 0.25 C7.13888672 0.31960937 7.13888672 0.31960937 8.30078125 0.390625 C8.49395536 5.95869689 8.67252811 11.52697989 8.83789062 17.09594727 C8.89610273 18.98832591 8.95822521 20.88058864 9.02441406 22.77270508 C9.11914755 25.50059895 9.19956897 28.22860747 9.27734375 30.95703125 C9.3095401 31.79585342 9.34173645 32.6346756 9.37490845 33.49891663 C9.50218287 38.54843243 9.09909168 42.64462887 7.30078125 47.390625 C4.65619746 48.71291689 2.62316824 48.48739694 -0.32421875 48.453125 C-1.32710938 48.44410156 -2.33 48.43507812 -3.36328125 48.42578125 C-4.13414063 48.41417969 -4.905 48.40257812 -5.69921875 48.390625 C-5.77337967 42.19761781 -5.82782631 36.00486916 -5.86401367 29.81152344 C-5.87909944 27.7047068 -5.89957068 25.59792156 -5.92553711 23.49121094 C-5.96192928 20.4628118 -5.97894725 17.43482791 -5.9921875 14.40625 C-6.00767136 13.46444885 -6.02315521 12.52264771 -6.03910828 11.55230713 C-6.03933487 10.67169617 -6.03956146 9.79108521 -6.03979492 8.88378906 C-6.04645676 8.11101624 -6.05311859 7.33824341 -6.0599823 6.54205322 C-5.41199995 2.67778391 -3.90075445 0.5645086 0 0 Z " fill="#E44E13" transform="translate(88.69921875,125.609375)"/>
<path d="M0 0 C4.9230583 1.59492338 8.47700136 6.13430186 12.0859375 9.67578125 C13.59746513 10.9989874 15.11738835 12.31271262 16.6484375 13.61328125 C19.87749221 16.36155116 20.95400581 17.56968729 21.47265625 21.91796875 C20.99252554 26.58348127 19.1137292 28.65565637 15.8984375 31.80078125 C15.41568359 32.29964844 14.93292969 32.79851562 14.43554688 33.3125 C13.0030009 34.78542646 11.54839689 36.2326103 10.0859375 37.67578125 C9.1310168 38.63101721 8.17655622 39.58671347 7.22265625 40.54296875 C6.51753906 41.24679688 5.81242187 41.950625 5.0859375 42.67578125 C6.97508968 35.14989044 9.37551306 27.90357975 12.09765625 20.64453125 C13.24386411 17.72286484 13.24386411 17.72286484 13.0859375 14.67578125 C10.81711663 13.83658727 8.54616723 13.00426401 6.2734375 12.17578125 C5.63083984 11.93730469 4.98824219 11.69882813 4.32617188 11.453125 C1.43660011 10.40509379 -0.81482311 9.67578125 -3.9140625 9.67578125 C-6.8840625 17.92578125 -9.8540625 26.17578125 -12.9140625 34.67578125 C-15.87467366 33.19547567 -17.83995982 32.17088983 -20.2265625 30.05078125 C-20.75894531 29.60476562 -21.29132813 29.15875 -21.83984375 28.69921875 C-23.26669107 26.01155724 -23.15043026 23.79059211 -22.65991211 20.82910156 C-21.21847883 16.66758225 -18.12407159 13.89594986 -15.0390625 10.86328125 C-14.40097656 10.20908203 -13.76289063 9.55488281 -13.10546875 8.88085938 C-11.39096993 7.1287776 -9.65782796 5.39865537 -7.9140625 3.67578125 C-7.16358643 2.85460815 -7.16358643 2.85460815 -6.39794922 2.0168457 C-4.41545447 0.22516363 -2.64274513 -0.10593282 0 0 Z " fill="#E54F14" transform="translate(153.9140625,79.32421875)"/>
<path d="M0 0 C18.43292472 12.27346405 29.70996855 30.6006167 34.16796875 52.109375 C34.77546245 57.58372162 34.30282599 62.7188031 33.16796875 68.109375 C32.83796875 68.109375 32.50796875 68.109375 32.16796875 68.109375 C32.1421875 66.96082031 32.11640625 65.81226562 32.08984375 64.62890625 C31.4440679 44.64009189 25.39891025 27.75609588 10.6328125 13.6953125 C-4.08985729 1.02746138 -20.24500157 -3.55813729 -39.33154297 -2.91943359 C-47.73768474 -2.66205665 -47.73768474 -2.66205665 -51.83203125 -4.890625 C-36.85562622 -14.87489502 -14.1188404 -8.04825494 0 0 Z " fill="#233385" transform="translate(177.83203125,57.890625)"/>
<path d="M0 0 C4.83915573 0.68987964 9.54468406 1.98792183 14 4 C13.40421223 9.26621606 12.18691204 13.94408019 10.4375 18.9375 C10.20353516 19.62134766 9.96957031 20.30519531 9.72851562 21.00976562 C9.15788171 22.67508501 8.57972902 24.33782493 8 26 C4.22740967 25.43684521 0.72649742 24.69256728 -2.875 23.4375 C-3.65617188 23.16808594 -4.43734375 22.89867188 -5.2421875 22.62109375 C-5.82226562 22.41613281 -6.40234375 22.21117188 -7 22 C-6.33869808 17.16798713 -5.06831066 12.7804098 -3.5 8.1875 C-3.27441406 7.50751953 -3.04882812 6.82753906 -2.81640625 6.12695312 C-1.13375235 1.13375235 -1.13375235 1.13375235 0 0 Z " fill="#E54F14" transform="translate(150,94)"/>
<path d="M0 0 C2.21154078 2.21154078 2.59360256 3.51208501 3.5625 6.4375 C5.27663772 11.0239766 7.59246592 14.00967445 10.875 17.625 C14.94142606 22.3103747 14.94142606 22.3103747 15.20703125 25.4375 C14.6875 27.625 14.6875 27.625 13 31 C11 32 11 32 0 32 C0 21.44 0 10.88 0 0 Z " fill="#202F81" transform="translate(83,142)"/>
<path d="M0 0 C1.6277833 6.14778871 2.20190089 11.64012196 2 18 C-0.375 18.625 -0.375 18.625 -3 19 C-5.6855594 16.3144406 -6.06049974 13.62378672 -7 10 C-11.44209357 9.89165625 -15.61414671 10.29826347 -20 11 C-20.66 9.35 -21.32 7.7 -22 6 C-17.18729119 0.11596903 -7.16337834 -0.48841216 0 0 Z " fill="#243584" transform="translate(208,137)"/>
<path d="M0 0 C6.44897281 0.73414646 12.21660368 3.18349966 18 6 C16.36231563 15.00726401 13.13020303 23.42639358 10 32 C9.34 31.67 8.68 31.34 8 31 C9.88619822 23.96354423 11.86927695 16.96640656 14 10 C13.360625 9.87625 12.72125 9.7525 12.0625 9.625 C8.03066574 8.80217668 4.01695053 7.89265567 0 7 C-2.31 13.93 -4.62 20.86 -7 28 C-9 24 -9 24 -8.50854492 21.45043945 C-8.16927979 20.51417725 -7.83001465 19.57791504 -7.48046875 18.61328125 C-6.93616211 17.0828418 -6.93616211 17.0828418 -6.38085938 15.52148438 C-5.98705078 14.46251953 -5.59324219 13.40355469 -5.1875 12.3125 C-4.80529297 11.24193359 -4.42308594 10.17136719 -4.02929688 9.06835938 C-1.18482608 1.18482608 -1.18482608 1.18482608 0 0 Z " fill="#FCF0EE" transform="translate(150,88)"/>
<path d="M0 0 C1.80078125 0.9140625 1.80078125 0.9140625 2.80078125 3.9140625 C1.40225754 6.47528043 -0.40668199 8.59688084 -2.19921875 10.9140625 C0.44078125 12.8940625 3.08078125 14.8740625 5.80078125 16.9140625 C5.47078125 18.5640625 5.14078125 20.2140625 4.80078125 21.9140625 C-0.19604328 21.452479 -2.77471135 20.08627826 -6.57421875 16.8515625 C-7.44820313 16.11808594 -8.3221875 15.38460937 -9.22265625 14.62890625 C-9.87492187 14.06300781 -10.5271875 13.49710938 -11.19921875 12.9140625 C-10.69439617 8.61930327 -9.43004671 6.57674421 -6.38671875 3.5390625 C-5.35611328 2.47558594 -5.35611328 2.47558594 -4.3046875 1.390625 C-2.19921875 -0.0859375 -2.19921875 -0.0859375 0 0 Z " fill="#E64F13" transform="translate(124.19921875,42.0859375)"/>
<path d="M0 0 C0.99 1.98 0.99 1.98 2 4 C0.19186125 4.80157758 -1.62180373 5.59069175 -3.4375 6.375 C-4.44683594 6.81585938 -5.45617187 7.25671875 -6.49609375 7.7109375 C-13.91097772 10.43882123 -20.93586321 11.3659268 -28.8125 11.3125 C-29.6890625 11.30686035 -30.565625 11.3012207 -31.46875 11.29541016 C-43.40074534 11.07289695 -52.57080589 7.71386699 -63 2 C-61 1 -61 1 -58.86328125 1.70703125 C-58.02152344 2.07183594 -57.17976563 2.43664062 -56.3125 2.8125 C-40.71974147 9.52975367 -22.89691479 9.00711483 -7.046875 3.2890625 C-4.64105303 2.27121474 -2.30708912 1.22207196 0 0 Z " fill="#2D388A" transform="translate(172,173)"/>
<path d="M0 0 C2.375 0.1875 2.375 0.1875 5 1 C6.3125 3.5625 6.3125 3.5625 7 6 C7.33 4.02 7.66 2.04 8 0 C10.97 0 13.94 0 17 0 C17 2.97 17 5.94 17 9 C16.34 9 15.68 9 15 9 C14.67 8.01 14.34 7.02 14 6 C11.98491642 5.26676204 11.98491642 5.26676204 10 5 C10 6.32 10 7.64 10 9 C8.35 9 6.7 9 5 9 C5 8.34 5 7.68 5 7 C2.69 7.33 0.38 7.66 -2 8 C-1.34 5.36 -0.68 2.72 0 0 Z " fill="#51569B" transform="translate(140,189)"/>
<path d="M0 0 C4.64034102 1.54678034 5.81431633 4.92742901 8.1484375 9.07421875 C10.40390057 13.59344575 11.95424238 18.30587308 13.4375 23.125 C13.69635986 23.94718018 13.95521973 24.76936035 14.22192383 25.61645508 C16.49749225 33.46267746 16.68611099 40.99097278 15 49 C14.67 49 14.34 49 14 49 C13.97421875 47.85144531 13.9484375 46.70289063 13.921875 45.51953125 C13.37052293 28.453433 8.86500118 15.03865552 -1 1 C-0.67 0.67 -0.34 0.34 0 0 Z " fill="#31398C" transform="translate(196,77)"/>
<path d="M0 0 C0.66 0 1.32 0 2 0 C2 0.66 2 1.32 2 2 C2.66 2.33 3.32 2.66 4 3 C3.91621094 3.83273438 3.83242187 4.66546875 3.74609375 5.5234375 C4.07471018 10.02295473 5.78637252 12.80992156 8.0625 16.625 C12.09066988 23.38966215 12.09066988 23.38966215 11.70092773 26.01318359 C10.71522391 28.80721277 9.37077318 31.37765131 8 34 C7.34 32.68 6.68 31.36 6 30 C6.66 29.01 7.32 28.02 8 27 C7.70010797 22.54775685 5.53609122 19.02251545 3.4375 15.1875 C0.64938557 9.90497561 -0.83917498 5.994107 0 0 Z " fill="#E9DFE3" transform="translate(82,86)"/>
<path d="M0 0 C6.15234375 -0.09765625 6.15234375 -0.09765625 8 0 C9 1 9 1 9.1328125 2.8125 C9.13023437 3.534375 9.12765625 4.25625 9.125 5 C9.12757813 5.721875 9.13015625 6.44375 9.1328125 7.1875 C9 9 9 9 8 10 C5.32941149 10.14115161 2.67567762 10.04247107 0 10 C0 6.7 0 3.4 0 0 Z " fill="#585C99" transform="translate(123,188)"/>
<path d="M0 0 C0.66 1.32 1.32 2.64 2 4 C0.0848421 4.81604999 -1.83218834 5.62770632 -3.75 6.4375 C-4.81734375 6.88996094 -5.8846875 7.34242188 -6.984375 7.80859375 C-13.62865848 10.43360212 -20.05525358 10.7361866 -27 9 C-27 8.67 -27 8.34 -27 8 C-26.05640625 7.84144531 -25.1128125 7.68289062 -24.140625 7.51953125 C-15.54480866 5.95744013 -7.9562008 3.74845215 0 0 Z " fill="#1E2F83" transform="translate(172,173)"/>
<path d="M0 0 C2.125 5.625 2.125 5.625 1 9 C-1.67990179 10.98511244 -2.88378631 11.01340927 -6.25 10.625 C-7.61125 10.315625 -7.61125 10.315625 -9 10 C-9 6 -9 6 -7.5390625 4.296875 C-6.90742188 3.78640625 -6.27578125 3.2759375 -5.625 2.75 C-4.99851563 2.22921875 -4.37203125 1.7084375 -3.7265625 1.171875 C-2 0 -2 0 0 0 Z " fill="#E45219" transform="translate(193,164)"/>
<path d="M0 0 C2.625 0.9375 2.625 0.9375 5 2 C5 2.99 5 3.98 5 5 C3.35 5 1.7 5 0 5 C-2.31 11.93 -4.62 18.86 -7 26 C-9 22 -9 22 -8.61621094 19.6340332 C-8.17970215 18.35532349 -8.17970215 18.35532349 -7.734375 17.05078125 C-7.42113281 16.12072266 -7.10789063 15.19066406 -6.78515625 14.23242188 C-6.44355469 13.26884766 -6.10195312 12.30527344 -5.75 11.3125 C-5.42386719 10.33732422 -5.09773437 9.36214844 -4.76171875 8.35742188 C-2.28069196 1.14034598 -2.28069196 1.14034598 0 0 Z " fill="#F9DED9" transform="translate(150,90)"/>
<path d="M0 0 C0.66 0.66 1.32 1.32 2 2 C4.67813399 2.02207488 4.67813399 2.02207488 7.625 1.625 C8.62789062 1.51414063 9.63078125 1.40328125 10.6640625 1.2890625 C11.43492187 1.19367188 12.20578125 1.09828125 13 1 C12.4225 1.70125 11.845 2.4025 11.25 3.125 C8.92429334 6.00440102 8.92429334 6.00440102 6.875 9.3125 C5.946875 10.6428125 5.946875 10.6428125 5 12 C4.34 12 3.68 12 3 12 C-0.42857143 4.71428571 -0.42857143 4.71428571 0 0 Z " fill="#F5F3F4" transform="translate(186,145)"/>
<path d="M0 0 C2.64 0 5.28 0 8 0 C7.979375 0.7425 7.95875 1.485 7.9375 2.25 C7.99328688 4.70462279 8.3069904 6.66109261 9 9 C8.01 9 7.02 9 6 9 C6 8.01 6 7.02 6 6 C4.68 6 3.36 6 2 6 C2 6.99 2 7.98 2 9 C1.34 9 0.68 9 0 9 C0 6.03 0 3.06 0 0 Z " fill="#7276AA" transform="translate(100,189)"/>
<path d="M0 0 C2.97 0 5.94 0 9 0 C8.814375 0.7425 8.62875 1.485 8.4375 2.25 C8.00796892 4.94990963 8.14877026 6.44631077 9 9 C8.34 9 7.68 9 7 9 C6.67 8.01 6.34 7.02 6 6 C3.98491642 5.26676204 3.98491642 5.26676204 2 5 C2 6.32 2 7.64 2 9 C1.34 9 0.68 9 0 9 C0 6.03 0 3.06 0 0 Z " fill="#5862A2" transform="translate(39,189)"/>
<path d="M0 0 C3.28220895 1.64110448 3.74570789 4.69322988 5 8 C5 8.99 5 9.98 5 11 C2.36 11 -0.28 11 -3 11 C-2.69078116 9.54096742 -2.37751201 8.08279278 -2.0625 6.625 C-1.88847656 5.81289062 -1.71445313 5.00078125 -1.53515625 4.1640625 C-1 2 -1 2 0 0 Z " fill="#F9F1F0" transform="translate(170,144)"/>
<path d="M0 0 C1.32 0 2.64 0 4 0 C4.99 1.98 5.98 3.96 7 6 C7.33 4.02 7.66 2.04 8 0 C8.66 0 9.32 0 10 0 C10 2.97 10 5.94 10 9 C8.68 9 7.36 9 6 9 C4.25 6.5 4.25 6.5 3 4 C2.67 5.65 2.34 7.3 2 9 C1.34 9 0.68 9 0 9 C0 6.03 0 3.06 0 0 Z " fill="#273086" transform="translate(179,189)"/>
<path d="M0 0 C1.134375 0.020625 2.26875 0.04125 3.4375 0.0625 C3.7675 1.0525 4.0975 2.0425 4.4375 3.0625 C2.1275 2.7325 -0.1825 2.4025 -2.5625 2.0625 C-2.5625 4.0425 -2.5625 6.0225 -2.5625 8.0625 C-0.9125 8.0625 0.7375 8.0625 2.4375 8.0625 C2.4375 7.4025 2.4375 6.7425 2.4375 6.0625 C1.7775 5.7325 1.1175 5.4025 0.4375 5.0625 C1.7575 5.0625 3.0775 5.0625 4.4375 5.0625 C4.1075 6.7125 3.7775 8.3625 3.4375 10.0625 C1.10455225 10.10491723 -1.22952567 10.10342937 -3.5625 10.0625 C-4.5625 9.0625 -4.5625 9.0625 -4.6953125 7.25 C-4.69273437 6.528125 -4.69015625 5.80625 -4.6875 5.0625 C-4.69007813 4.340625 -4.69265625 3.61875 -4.6953125 2.875 C-4.44680298 -0.5164241 -3.51086809 0.06159418 0 0 Z " fill="#464C91" transform="translate(163.5625,187.9375)"/>
<path d="M0 0 C1.134375 0.020625 2.26875 0.04125 3.4375 0.0625 C3.1075 1.0525 2.7775 2.0425 2.4375 3.0625 C0.7875 2.7325 -0.8625 2.4025 -2.5625 2.0625 C-2.5625 2.7225 -2.5625 3.3825 -2.5625 4.0625 C0.4075 4.5575 0.4075 4.5575 3.4375 5.0625 C3.4375 6.7125 3.4375 8.3625 3.4375 10.0625 C1.1275 10.0625 -1.1825 10.0625 -3.5625 10.0625 C-3.8925 9.0725 -4.2225 8.0825 -4.5625 7.0625 C-2.2525 7.3925 0.0575 7.7225 2.4375 8.0625 C2.4375 7.4025 2.4375 6.7425 2.4375 6.0625 C0.4575 6.0625 -1.5225 6.0625 -3.5625 6.0625 C-3.94468767 4.40635343 -4.27645102 2.73792976 -4.5625 1.0625 C-3.5625 0.0625 -3.5625 0.0625 0 0 Z " fill="#545997" transform="translate(76.5625,187.9375)"/>
<path d="M0 0 C1.32 0 2.64 0 4 0 C4.99 2.97 5.98 5.94 7 9 C6.34 9 5.68 9 5 9 C5 8.34 5 7.68 5 7 C3.02 7 1.04 7 -1 7 C-1 7.66 -1 8.32 -1 9 C-1.66 9 -2.32 9 -3 9 C-2.01 6.03 -1.02 3.06 0 0 Z " fill="#4E559B" transform="translate(52,189)"/>
<path d="M0 0 C3.36997254 1.4615836 5.60745127 3.3380888 8.1875 5.9375 C9.22970703 6.97197266 9.22970703 6.97197266 10.29296875 8.02734375 C12 10 12 10 13 13 C8.84439769 13 7.15900671 10.7179548 4.3125 8 C3.80138672 7.52304688 3.29027344 7.04609375 2.76367188 6.5546875 C1.50290516 5.37640085 0.25062314 4.18904747 -1 3 C-0.67 2.01 -0.34 1.02 0 0 Z " fill="#162380" transform="translate(184,64)"/>
<path d="M0 0 C2.3125 0.1875 2.3125 0.1875 5 1 C6.8125 3.5625 6.8125 3.5625 8 6 C8.33 4.02 8.66 2.04 9 0 C9.33 0 9.66 0 10 0 C10 2.97 10 5.94 10 9 C8.68 8.67 7.36 8.34 6 8 C4.25 4.9375 4.25 4.9375 3 2 C2.67 4.31 2.34 6.62 2 9 C1.34 9 0.68 9 0 9 C0 6.03 0 3.06 0 0 Z " fill="#09177F" transform="translate(60,189)"/>
<path d="M0 0 C0.66 0.33 1.32 0.66 2 1 C1.34065816 5.86548808 0.03428754 10.25907636 -1.5625 14.875 C-1.91344727 15.90753906 -1.91344727 15.90753906 -2.27148438 16.9609375 C-2.84352499 18.64203645 -3.42118456 20.32122163 -4 22 C-4.66 21.67 -5.32 21.34 -6 21 C-4.11380178 13.96354423 -2.13072305 6.96640656 0 0 Z " fill="#F8DBD5" transform="translate(164,98)"/>
<path d="M0 0 C2.31 0 4.62 0 7 0 C7 0.33 7 0.66 7 1 C5.35 1 3.7 1 2 1 C2 1.66 2 2.32 2 3 C3.65 3 5.3 3 7 3 C7 3.66 7 4.32 7 5 C5.35 5 3.7 5 2 5 C2 5.66 2 6.32 2 7 C3.65 7 5.3 7 7 7 C7 7.66 7 8.32 7 9 C4.69 9 2.38 9 0 9 C0 6.03 0 3.06 0 0 Z " fill="#5B6199" transform="translate(91,189)"/>
<path d="M0 0 C2.31 0 4.62 0 7 0 C7 0.33 7 0.66 7 1 C5.02 1 3.04 1 1 1 C1 1.66 1 2.32 1 3 C2.98 3 4.96 3 7 3 C7 3.66 7 4.32 7 5 C5.35 5 3.7 5 2 5 C2 5.66 2 6.32 2 7 C3.65 7 5.3 7 7 7 C7 7.66 7 8.32 7 9 C4.69 9 2.38 9 0 9 C0 6.03 0 3.06 0 0 Z " fill="#63679C" transform="translate(170,189)"/>
<path d="M0 0 C1.98 0 3.96 0 6 0 C6 1.98 6 3.96 6 6 C4.02 6 2.04 6 0 6 C0 4.02 0 2.04 0 0 Z " fill="#EFF0F4" transform="translate(125,190)"/>
<path d="M0 0 C0.99 0.66 1.98 1.32 3 2 C2.67 2.99 2.34 3.98 2 5 C-0.64 4.34 -3.28 3.68 -6 3 C-6 2.34 -6 1.68 -6 1 C-6.66 0.67 -7.32 0.34 -8 0 C-5.08931154 -1.45534423 -3.1172005 -0.69977971 0 0 Z " fill="#F3AE9D" transform="translate(152,118)"/>
<path d="M0 0 C1.98 0 3.96 0 6 0 C6.33 2.64 6.66 5.28 7 8 C6.34 8 5.68 8 5 8 C4.67 7.01 4.34 6.02 4 5 C1.98491642 4.26676204 1.98491642 4.26676204 0 4 C0 2.68 0 1.36 0 0 Z " fill="#959ABD" transform="translate(150,190)"/>
<path d="M0 0 C2.31 0 4.62 0 7 0 C7 0.33 7 0.66 7 1 C5.35 1 3.7 1 2 1 C2 1.66 2 2.32 2 3 C3.65 3 5.3 3 7 3 C7 3.66 7 4.32 7 5 C5.35 5 3.7 5 2 5 C2 6.32 2 7.64 2 9 C1.34 9 0.68 9 0 9 C0 6.03 0 3.06 0 0 Z " fill="#272F86" transform="translate(82,189)"/>
<path d="M0 0 C2.31 0.33 4.62 0.66 7 1 C7 1.66 7 2.32 7 3 C6.01 3.495 6.01 3.495 5 4 C5 4.66 5 5.32 5 6 C3.35 6 1.7 6 0 6 C0 4.02 0 2.04 0 0 Z " fill="#F3F3F6" transform="translate(161,190)"/>
<path d="M0 0 C0.66 0 1.32 0 2 0 C2 0.66 2 1.32 2 2 C2.66 2.33 3.32 2.66 4 3 C4.1953125 9.0546875 4.1953125 9.0546875 4 11 C3.34 11.66 2.68 12.32 2 13 C-0.24828052 8.50343896 -0.16682272 4.92127034 0 0 Z " fill="#E6D1D2" transform="translate(82,86)"/>
<path d="M0 0 C0.66 0 1.32 0 2 0 C2.20625 0.804375 2.4125 1.60875 2.625 2.4375 C3.07875 3.283125 3.5325 4.12875 4 5 C7.05272465 5.89830839 7.05272465 5.89830839 10 6 C10 6.66 10 7.32 10 8 C8.88625 7.95875 7.7725 7.9175 6.625 7.875 C2.95633975 7.58878141 2.95633975 7.58878141 1 10 C0.67 6.7 0.34 3.4 0 0 Z " fill="#EAEBF0" transform="translate(69,188)"/>
<path d="M0 0 C3.69790046 1.23263349 3.9354846 2.20052451 5.6875 5.5625 C6.12449219 6.38878906 6.56148437 7.21507813 7.01171875 8.06640625 C7.33785156 8.70449219 7.66398438 9.34257813 8 10 C5.29561004 9.63594751 4.25593617 9.31857318 2.515625 7.15234375 C1.88914063 6.05599609 1.88914063 6.05599609 1.25 4.9375 C0.82203125 4.20402344 0.3940625 3.47054687 -0.046875 2.71484375 C-0.36140625 2.14894531 -0.6759375 1.58304687 -1 1 C-0.67 0.67 -0.34 0.34 0 0 Z " fill="#233386" transform="translate(196,77)"/>
<path d="M0 0 C1.32 0.33 2.64 0.66 4 1 C3.01 1 2.02 1 1 1 C1 3.97 1 6.94 1 10 C0.67 10 0.34 10 0 10 C-0.33 8.35 -0.66 6.7 -1 5 C-3.97 4.505 -3.97 4.505 -7 4 C-7 3.34 -7 2.68 -7 2 C-4.69 2 -2.38 2 0 2 C0 1.34 0 0.68 0 0 Z " fill="#E0E1E8" transform="translate(178,188)"/>
<path d="M0 0 C0.66 0 1.32 0 2 0 C2.70226141 1.24176695 3.38629109 2.49385599 4.0625 3.75 C4.44535156 4.44609375 4.82820313 5.1421875 5.22265625 5.859375 C6.1312406 8.36140628 5.88336837 9.5332355 5 12 C4.15885829 10.56705502 3.32734313 9.12845595 2.5 7.6875 C1.80390625 6.48673828 1.80390625 6.48673828 1.09375 5.26171875 C0 3 0 3 0 0 Z " fill="#F0E6E7" transform="translate(85,97)"/>
<path d="M0 0 C0.33 0 0.66 0 1 0 C1 2.97 1 5.94 1 9 C-3 8 -3 8 -4.25 5.9375 C-4.62125 4.9784375 -4.62125 4.9784375 -5 4 C-4.01 4 -3.02 4 -2 4 C-1.67 4.66 -1.34 5.32 -1 6 C-0.67 4.02 -0.34 2.04 0 0 Z " fill="#1C2580" transform="translate(69,189)"/>
<path d="M0 0 C0 0.99 0 1.98 0 3 C-3.63 2.67 -7.26 2.34 -11 2 C-11 1.67 -11 1.34 -11 1 C-7.26513121 0.4254048 -3.78706732 0 0 0 Z " fill="#08147B" transform="translate(156,180)"/>
<path d="M0 0 C1.125 1.625 1.125 1.625 2 4 C1.125 7.25 1.125 7.25 0 10 C-1.125 8.375 -1.125 8.375 -2 6 C-1.125 2.75 -1.125 2.75 0 0 Z " fill="#F7D7D1" transform="translate(143,106)"/>
</svg>
