<svg xmlns="http://www.w3.org/2000/svg" xmlns:v="https://svgstorm.com"
viewBox = "0 0 512 512"
width="512"
height="512">
<g fill="None" fill-opacity="0.0" stroke="#1DC8FF" stroke-opacity="1.00" stroke-width="0.3"><path d="
M 0.00 512.00 
L 512.00 512.00
L 512.00 0.00
L 0.00 0.00
L 0.00 512.00
M 350.00 413.00 
C 361.19 420.60 368.85 434.39 368.00 448.00
C 340.83 447.33 312.34 449.33 286.00 447.00
C 278.25 446.93 268.75 446.93 261.00 447.00
C 234.55 447.23 206.20 448.91 179.00 448.00
C 177.94 433.82 186.15 420.41 198.00 413.00
C 185.11 395.95 175.00 375.94 175.00 354.00
C 174.57 349.55 174.47 344.41 175.00 340.00
C 175.45 317.48 184.35 296.45 169.00 277.00
C 155.66 262.57 139.76 249.93 127.00 235.00
C 114.70 220.61 112.62 203.25 118.92 185.92 C 125.23 168.59 143.42 159.10 156.25 172.75 C 169.07 186.40 178.84 191.48 192.00 203.00
C 199.27 160.47 194.95 100.32 236.25 74.25 C 277.55 48.17 334.86 72.99 343.78 120.22 C 352.69 167.46 357.28 224.38 365.00 272.00 C 372.72 319.62 385.60 373.72 350.00 413.00 Z"/>
</g>
<g fill="None" fill-opacity="0.0" stroke="#010202" stroke-opacity="1.00" stroke-width="0.3"><path d="
M 127.00 235.00 
C 140.74 248.74 156.97 261.76 169.00 277.00
C 184.35 296.45 175.45 317.48 175.00 340.00
C 174.91 344.66 175.00 349.34 175.00 354.00
C 175.00 375.94 185.11 395.95 198.00 413.00
C 202.80 410.12 207.41 408.08 213.07 407.07 C 218.73 406.06 228.09 407.11 233.07 408.93 C 238.05 410.75 243.47 413.61 247.23 416.77 C 250.99 419.93 255.32 425.32 256.77 429.23 C 258.22 433.14 263.45 443.36 261.00 447.00
C 268.75 446.93 278.25 446.93 286.00 447.00
C 283.15 442.80 289.21 433.68 290.31 429.31 C 291.40 424.94 296.90 420.93 300.25 417.25 C 303.60 413.56 309.00 410.40 314.03 409.03 C 319.05 407.65 328.42 405.55 334.00 407.00 C 339.58 408.45 345.35 409.84 350.00 413.00
C 385.60 373.72 372.72 319.62 365.00 272.00 C 357.28 224.38 352.69 167.46 343.78 120.22 C 334.86 72.99 277.55 48.17 236.25 74.25 C 194.95 100.32 199.27 160.47 192.00 203.00
C 178.84 191.48 169.07 186.40 156.25 172.75 C 143.42 159.10 125.23 168.59 118.92 185.92 C 112.62 203.25 114.70 220.61 127.00 235.00
M 252.00 118.00 
C 264.25 120.40 260.92 143.71 248.00 141.00 C 235.08 138.28 238.29 115.31 252.00 118.00
M 300.00 118.00 
C 312.25 120.40 308.92 143.71 296.00 141.00 C 283.08 138.28 286.29 115.31 300.00 118.00
M 312.00 163.00 
C 295.23 187.88 252.74 188.10 236.00 163.00
C 249.55 162.62 260.33 153.05 274.00 153.00 C 287.67 152.95 298.47 162.48 312.00 163.00
M 280.00 225.00 
C 305.34 229.11 314.55 256.27 321.99 278.01 C 329.44 299.75 327.64 338.53 319.07 360.07 C 310.51 381.62 293.99 407.29 267.78 402.22 C 241.56 397.15 232.58 372.73 225.02 349.98 C 217.47 327.22 219.46 290.06 227.93 267.93 C 236.40 245.79 252.76 220.58 280.00 225.00 Z"/>
</g>
<g fill="None" fill-opacity="0.0" stroke="#F5F5F5" stroke-opacity="1.00" stroke-width="0.3"><path d="
M 252.00 118.00 
C 238.29 115.31 235.08 138.28 248.00 141.00 C 260.92 143.71 264.25 120.40 252.00 118.00 Z"/>
</g>
<g fill="None" fill-opacity="0.0" stroke="#F5F5F5" stroke-opacity="1.00" stroke-width="0.3"><path d="
M 300.00 118.00 
C 286.29 115.31 283.08 138.28 296.00 141.00 C 308.92 143.71 312.25 120.40 300.00 118.00 Z"/>
</g>
<g fill="None" fill-opacity="0.0" stroke="#F07D1F" stroke-opacity="1.00" stroke-width="0.3"><path d="
M 312.00 163.00 
C 298.47 162.48 287.67 152.95 274.00 153.00 C 260.33 153.05 249.55 162.62 236.00 163.00
C 252.74 188.10 295.23 187.88 312.00 163.00 Z"/>
</g>
<g fill="None" fill-opacity="0.0" stroke="#FCFCFC" stroke-opacity="1.00" stroke-width="0.3"><path d="
M 280.00 225.00 
C 252.76 220.58 236.40 245.79 227.93 267.93 C 219.46 290.06 217.47 327.22 225.02 349.98 C 232.58 372.73 241.56 397.15 267.78 402.22 C 293.99 407.29 310.51 381.62 319.07 360.07 C 327.64 338.53 329.44 299.75 321.99 278.01 C 314.55 256.27 305.34 229.11 280.00 225.00 Z"/>
</g>
<g fill="None" fill-opacity="0.0" stroke="#0F6783" stroke-opacity="1.00" stroke-width="0.3"><path d="
M 169.00 277.00 
C 156.97 261.76 140.74 248.74 127.00 235.00
C 139.76 249.93 155.66 262.57 169.00 277.00 Z"/>
</g>
<g fill="None" fill-opacity="0.0" stroke="#0F6784" stroke-opacity="1.00" stroke-width="0.3"><path d="
M 175.00 354.00 
C 175.00 349.34 174.91 344.66 175.00 340.00
C 174.47 344.41 174.57 349.55 175.00 354.00 Z"/>
</g>
<g fill="None" fill-opacity="0.0" stroke="#F27E20" stroke-opacity="1.00" stroke-width="0.3"><path d="
M 198.00 413.00 
C 186.15 420.41 177.94 433.82 179.00 448.00
C 206.20 448.91 234.55 447.23 261.00 447.00
C 263.45 443.36 258.22 433.14 256.77 429.23 C 255.32 425.32 250.99 419.93 247.23 416.77 C 243.47 413.61 238.05 410.75 233.07 408.93 C 228.09 407.11 218.73 406.06 213.07 407.07 C 207.41 408.08 202.80 410.12 198.00 413.00 Z"/>
</g>
<g fill="None" fill-opacity="0.0" stroke="#F27E20" stroke-opacity="1.00" stroke-width="0.3"><path d="
M 286.00 447.00 
C 312.34 449.33 340.83 447.33 368.00 448.00
C 368.85 434.39 361.19 420.60 350.00 413.00
C 345.35 409.84 339.58 408.45 334.00 407.00 C 328.42 405.55 319.05 407.65 314.03 409.03 C 309.00 410.40 303.60 413.56 300.25 417.25 C 296.90 420.93 291.40 424.94 290.31 429.31 C 289.21 433.68 283.15 442.80 286.00 447.00 Z"/>
</g>
<g fill="#1DC8FF" fill-opacity="1.00" stroke="None">
<path d="
M 0.00 512.00 
L 512.00 512.00
L 512.00 0.00
L 0.00 0.00
L 0.00 512.00
M 350.00 413.00 
C 361.19 420.60 368.85 434.39 368.00 448.00
C 340.83 447.33 312.34 449.33 286.00 447.00
C 278.25 446.93 268.75 446.93 261.00 447.00
C 234.55 447.23 206.20 448.91 179.00 448.00
C 177.94 433.82 186.15 420.41 198.00 413.00
C 185.11 395.95 175.00 375.94 175.00 354.00
C 174.57 349.55 174.47 344.41 175.00 340.00
C 175.45 317.48 184.35 296.45 169.00 277.00
C 155.66 262.57 139.76 249.93 127.00 235.00
C 114.70 220.61 112.62 203.25 118.92 185.92 C 125.23 168.59 143.42 159.10 156.25 172.75 C 169.07 186.40 178.84 191.48 192.00 203.00
C 199.27 160.47 194.95 100.32 236.25 74.25 C 277.55 48.17 334.86 72.99 343.78 120.22 C 352.69 167.46 357.28 224.38 365.00 272.00 C 372.72 319.62 385.60 373.72 350.00 413.00 Z"/>
</g>
<g fill="#010202" fill-opacity="1.00" stroke="None">
<path d="
M 127.00 235.00 
C 140.74 248.74 156.97 261.76 169.00 277.00
C 184.35 296.45 175.45 317.48 175.00 340.00
C 174.91 344.66 175.00 349.34 175.00 354.00
C 175.00 375.94 185.11 395.95 198.00 413.00
C 202.80 410.12 207.41 408.08 213.07 407.07 C 218.73 406.06 228.09 407.11 233.07 408.93 C 238.05 410.75 243.47 413.61 247.23 416.77 C 250.99 419.93 255.32 425.32 256.77 429.23 C 258.22 433.14 263.45 443.36 261.00 447.00
C 268.75 446.93 278.25 446.93 286.00 447.00
C 283.15 442.80 289.21 433.68 290.31 429.31 C 291.40 424.94 296.90 420.93 300.25 417.25 C 303.60 413.56 309.00 410.40 314.03 409.03 C 319.05 407.65 328.42 405.55 334.00 407.00 C 339.58 408.45 345.35 409.84 350.00 413.00
C 385.60 373.72 372.72 319.62 365.00 272.00 C 357.28 224.38 352.69 167.46 343.78 120.22 C 334.86 72.99 277.55 48.17 236.25 74.25 C 194.95 100.32 199.27 160.47 192.00 203.00
C 178.84 191.48 169.07 186.40 156.25 172.75 C 143.42 159.10 125.23 168.59 118.92 185.92 C 112.62 203.25 114.70 220.61 127.00 235.00
M 252.00 118.00 
C 264.25 120.40 260.92 143.71 248.00 141.00 C 235.08 138.28 238.29 115.31 252.00 118.00
M 300.00 118.00 
C 312.25 120.40 308.92 143.71 296.00 141.00 C 283.08 138.28 286.29 115.31 300.00 118.00
M 312.00 163.00 
C 295.23 187.88 252.74 188.10 236.00 163.00
C 249.55 162.62 260.33 153.05 274.00 153.00 C 287.67 152.95 298.47 162.48 312.00 163.00
M 280.00 225.00 
C 305.34 229.11 314.55 256.27 321.99 278.01 C 329.44 299.75 327.64 338.53 319.07 360.07 C 310.51 381.62 293.99 407.29 267.78 402.22 C 241.56 397.15 232.58 372.73 225.02 349.98 C 217.47 327.22 219.46 290.06 227.93 267.93 C 236.40 245.79 252.76 220.58 280.00 225.00 Z"/>
</g>
<g fill="#F5F5F5" fill-opacity="1.00" stroke="None">
<path d="
M 252.00 118.00 
C 238.29 115.31 235.08 138.28 248.00 141.00 C 260.92 143.71 264.25 120.40 252.00 118.00 Z"/>
</g>
<g fill="#F5F5F5" fill-opacity="1.00" stroke="None">
<path d="
M 300.00 118.00 
C 286.29 115.31 283.08 138.28 296.00 141.00 C 308.92 143.71 312.25 120.40 300.00 118.00 Z"/>
</g>
<g fill="#F07D1F" fill-opacity="1.00" stroke="None">
<path d="
M 312.00 163.00 
C 298.47 162.48 287.67 152.95 274.00 153.00 C 260.33 153.05 249.55 162.62 236.00 163.00
C 252.74 188.10 295.23 187.88 312.00 163.00 Z"/>
</g>
<g fill="#FCFCFC" fill-opacity="1.00" stroke="None">
<path d="
M 280.00 225.00 
C 252.76 220.58 236.40 245.79 227.93 267.93 C 219.46 290.06 217.47 327.22 225.02 349.98 C 232.58 372.73 241.56 397.15 267.78 402.22 C 293.99 407.29 310.51 381.62 319.07 360.07 C 327.64 338.53 329.44 299.75 321.99 278.01 C 314.55 256.27 305.34 229.11 280.00 225.00 Z"/>
</g>
<g fill="#0F6783" fill-opacity="1.00" stroke="None">
<path d="
M 169.00 277.00 
C 156.97 261.76 140.74 248.74 127.00 235.00
C 139.76 249.93 155.66 262.57 169.00 277.00 Z"/>
</g>
<g fill="#0F6784" fill-opacity="1.00" stroke="None">
<path d="
M 175.00 354.00 
C 175.00 349.34 174.91 344.66 175.00 340.00
C 174.47 344.41 174.57 349.55 175.00 354.00 Z"/>
</g>
<g fill="#F27E20" fill-opacity="1.00" stroke="None">
<path d="
M 198.00 413.00 
C 186.15 420.41 177.94 433.82 179.00 448.00
C 206.20 448.91 234.55 447.23 261.00 447.00
C 263.45 443.36 258.22 433.14 256.77 429.23 C 255.32 425.32 250.99 419.93 247.23 416.77 C 243.47 413.61 238.05 410.75 233.07 408.93 C 228.09 407.11 218.73 406.06 213.07 407.07 C 207.41 408.08 202.80 410.12 198.00 413.00 Z"/>
</g>
<g fill="#F27E20" fill-opacity="1.00" stroke="None">
<path d="
M 286.00 447.00 
C 312.34 449.33 340.83 447.33 368.00 448.00
C 368.85 434.39 361.19 420.60 350.00 413.00
C 345.35 409.84 339.58 408.45 334.00 407.00 C 328.42 405.55 319.05 407.65 314.03 409.03 C 309.00 410.40 303.60 413.56 300.25 417.25 C 296.90 420.93 291.40 424.94 290.31 429.31 C 289.21 433.68 283.15 442.80 286.00 447.00 Z"/>
</g>
</svg>