<svg xmlns="http://www.w3.org/2000/svg" xmlns:v="https://svgstorm.com"
viewBox = "0 0 151 149"
width="151"
height="149">
<g fill="None" fill-opacity="0.0" stroke="#FEE815" stroke-opacity="0.67" stroke-width="0.3"><path d="
M 0.00 1.00 
C 49.70 -2.36 100.41 5.48 150.00 1.00
C 150.00 0.50 150.00 0.00 150.00 0.00
L 0.00 0.00
L 0.00 1.00 Z"/>
</g>
<g fill="None" fill-opacity="0.0" stroke="#FEE915" stroke-opacity="0.14" stroke-width="0.3"><path d="
M 150.00 1.00 
C 150.00 25.37 149.16 49.62 150.00 74.00 C 150.84 98.38 147.80 123.69 150.00 148.00
C 150.50 148.00 151.00 148.00 151.00 148.00
L 151.00 0.00
L 150.00 0.00
C 150.00 0.00 150.00 0.50 150.00 1.00 Z"/>
</g>
<g fill="None" fill-opacity="0.0" stroke="#FEE716" stroke-opacity="1.00" stroke-width="0.3"><path d="
M 0.00 148.00 
C 50.00 148.00 100.00 148.00 150.00 148.00
C 147.80 123.69 150.84 98.38 150.00 74.00 C 149.16 49.62 150.00 25.37 150.00 1.00
C 100.41 5.48 49.70 -2.36 0.00 1.00
L 0.00 148.00
M 132.00 50.00 
C 134.53 51.23 132.22 56.46 129.32 54.66 C 126.42 52.86 129.18 48.63 132.00 50.00
M 25.00 62.00 
C 22.30 61.62 18.94 62.94 17.00 61.00
C 12.53 56.53 30.64 54.08 31.75 59.25 C 32.86 64.42 22.33 67.97 22.00 73.00
C 28.51 70.84 34.32 75.65 27.99 76.99 C 21.66 78.33 13.80 77.15 15.78 71.78 C 17.76 66.40 23.25 67.14 25.00 62.00
M 53.00 77.00 
C 47.07 76.51 36.82 78.62 34.23 70.77 C 31.64 62.92 38.99 54.95 46.67 57.33 C 54.35 59.71 55.76 70.54 53.00 77.00
M 69.00 76.00 
C 66.41 73.41 69.12 68.30 68.00 65.00
C 65.95 61.04 63.06 61.02 61.00 65.00
C 59.86 68.37 62.62 73.38 60.00 76.00
C 55.86 80.14 54.31 65.33 56.93 61.93 C 59.54 58.53 66.84 53.70 70.00 60.00
C 81.77 50.12 88.26 66.77 85.00 77.00
C 75.98 76.95 85.91 62.52 76.99 62.01 C 68.07 61.50 77.77 79.10 69.00 76.00
M 107.00 65.00 
C 107.82 67.58 109.39 73.61 107.00 76.00
C 101.92 81.08 89.88 75.56 88.00 69.00
C 87.41 66.94 87.38 67.02 88.00 65.00
C 89.32 53.58 104.14 55.94 107.00 65.00
M 126.00 64.00 
C 126.85 66.70 128.47 73.53 126.00 76.00
C 121.37 80.63 123.94 61.99 117.99 62.01 C 112.04 62.03 114.67 80.67 110.00 76.00
C 107.51 73.51 109.37 67.55 110.00 65.00
C 112.29 55.74 122.87 54.09 126.00 64.00
M 129.00 76.00 
C 126.65 73.65 127.31 61.47 129.00 59.00
C 134.62 50.77 135.10 82.10 129.00 76.00
M 99.00 93.00 
C 97.48 91.04 97.28 85.89 99.00 84.00
C 100.52 85.96 100.72 91.11 99.00 93.00
M 88.00 85.00 
C 89.15 87.37 87.70 89.30 88.00 92.00
C 91.41 92.50 88.77 86.07 93.00 87.00
C 91.82 90.95 94.75 87.39 96.00 87.00
C 96.69 91.19 88.67 90.12 95.00 93.00
C 88.93 96.05 81.85 88.55 88.00 85.00
M 107.00 88.00 
C 107.42 90.90 99.47 91.27 107.00 92.00
C 103.26 95.97 97.95 89.09 103.00 87.00
C 103.80 86.50 106.69 85.87 107.00 88.00
M 113.00 87.00 
C 116.06 88.16 111.06 88.95 110.00 88.00
C 109.19 90.64 111.84 93.08 114.00 91.00
C 114.59 94.02 109.29 93.46 109.00 91.00
C 108.03 89.52 107.79 89.45 109.00 88.00
C 109.24 87.73 109.72 87.23 110.00 87.00
C 111.50 85.75 111.56 86.08 113.00 87.00
M 120.00 87.00 
C 120.86 87.50 121.80 87.91 122.00 89.00
C 122.50 87.60 123.92 86.10 125.00 87.00
C 125.30 87.25 126.00 87.00 126.00 87.00
C 127.46 85.62 126.76 86.68 128.00 87.00
C 128.47 86.88 129.53 87.12 130.00 87.00
C 130.46 85.34 131.42 86.41 132.00 87.00
C 133.22 88.24 133.85 91.89 132.00 93.00
C 130.93 91.68 130.75 89.47 130.00 88.00
C 129.57 89.27 128.31 91.10 129.00 93.00
C 126.80 92.26 129.31 88.67 127.00 88.00
C 126.59 88.19 126.00 88.00 126.00 88.00
C 125.24 89.48 125.26 91.79 124.00 93.00
C 123.80 92.63 122.08 91.31 122.00 91.00
C 120.48 95.79 112.04 90.58 118.00 87.00
C 119.22 85.69 118.87 86.35 120.00 87.00 Z"/>
</g>
<g fill="None" fill-opacity="0.0" stroke="#D82E73" stroke-opacity="1.00" stroke-width="0.3"><path d="
M 132.00 50.00 
C 129.18 48.63 126.42 52.86 129.32 54.66 C 132.22 56.46 134.53 51.23 132.00 50.00 Z"/>
</g>
<g fill="None" fill-opacity="0.0" stroke="#D4177A" stroke-opacity="1.00" stroke-width="0.3"><path d="
M 17.00 61.00 
C 19.07 62.29 23.63 59.28 25.00 62.00
C 23.25 67.14 17.76 66.40 15.78 71.78 C 13.80 77.15 21.66 78.33 27.99 76.99 C 34.32 75.65 28.51 70.84 22.00 73.00
C 22.33 67.97 32.86 64.42 31.75 59.25 C 30.64 54.08 12.53 56.53 17.00 61.00 Z"/>
</g>
<g fill="None" fill-opacity="0.0" stroke="#D41D79" stroke-opacity="1.00" stroke-width="0.3"><path d="
M 53.00 77.00 
C 55.76 70.54 54.35 59.71 46.67 57.33 C 38.99 54.95 31.64 62.92 34.23 70.77 C 36.82 78.62 47.07 76.51 53.00 77.00
M 50.00 74.00 
C 44.98 74.25 33.70 70.49 39.77 63.77 C 45.84 57.05 52.70 67.97 50.00 74.00 Z"/>
</g>
<g fill="None" fill-opacity="0.0" stroke="#D4177A" stroke-opacity="1.00" stroke-width="0.3"><path d="
M 60.00 76.00 
C 61.62 73.40 59.55 67.81 61.00 65.00
C 63.06 61.02 65.95 61.04 68.00 65.00
C 69.47 67.84 67.39 73.41 69.00 76.00
C 77.77 79.10 68.07 61.50 76.99 62.01 C 85.91 62.52 75.98 76.95 85.00 77.00
C 88.26 66.77 81.77 50.12 70.00 60.00
C 66.84 53.70 59.54 58.53 56.93 61.93 C 54.31 65.33 55.86 80.14 60.00 76.00 Z"/>
</g>
<g fill="None" fill-opacity="0.0" stroke="#D41A79" stroke-opacity="1.00" stroke-width="0.3"><path d="
M 88.00 65.00 
C 87.86 66.24 87.89 67.76 88.00 69.00
C 89.88 75.56 101.92 81.08 107.00 76.00
C 107.98 74.52 107.33 66.83 107.00 65.00
C 104.14 55.94 89.32 53.58 88.00 65.00
M 103.00 74.00 
C 98.39 74.47 87.11 69.64 93.31 63.31 C 99.50 56.98 105.97 68.04 103.00 74.00 Z"/>
</g>
<g fill="None" fill-opacity="0.0" stroke="#D4157A" stroke-opacity="1.00" stroke-width="0.3"><path d="
M 110.00 65.00 
C 109.75 67.05 108.95 74.32 110.00 76.00
C 114.67 80.67 112.04 62.03 117.99 62.01 C 123.94 61.99 121.37 80.63 126.00 76.00
C 127.07 74.28 126.37 66.08 126.00 64.00
C 122.87 54.09 112.29 55.74 110.00 65.00 Z"/>
</g>
<g fill="None" fill-opacity="0.0" stroke="#D3107A" stroke-opacity="1.00" stroke-width="0.3"><path d="
M 129.00 59.00 
C 128.12 61.03 127.87 74.18 129.00 76.00
C 135.10 82.10 134.62 50.77 129.00 59.00 Z"/>
</g>
<g fill="None" fill-opacity="0.0" stroke="#EB8343" stroke-opacity="1.00" stroke-width="0.3"><path d="
M 129.00 76.00 
C 127.87 74.18 128.12 61.03 129.00 59.00
C 127.31 61.47 126.65 73.65 129.00 76.00 Z"/>
</g>
<g fill="None" fill-opacity="0.0" stroke="#EB8443" stroke-opacity="1.00" stroke-width="0.3"><path d="
M 25.00 62.00 
C 23.63 59.28 19.07 62.29 17.00 61.00
C 18.94 62.94 22.30 61.62 25.00 62.00 Z"/>
</g>
<g fill="None" fill-opacity="0.0" stroke="#FDDD1E" stroke-opacity="1.00" stroke-width="0.3"><path d="
M 50.00 74.00 
C 52.70 67.97 45.84 57.05 39.77 63.77 C 33.70 70.49 44.98 74.25 50.00 74.00 Z"/>
</g>
<g fill="None" fill-opacity="0.0" stroke="#FEE21A" stroke-opacity="1.00" stroke-width="0.3"><path d="
M 103.00 74.00 
C 105.97 68.04 99.50 56.98 93.31 63.31 C 87.11 69.64 98.39 74.47 103.00 74.00 Z"/>
</g>
<g fill="None" fill-opacity="0.0" stroke="#EB8542" stroke-opacity="1.00" stroke-width="0.3"><path d="
M 126.00 76.00 
C 128.47 73.53 126.85 66.70 126.00 64.00
C 126.37 66.08 127.07 74.28 126.00 76.00 Z"/>
</g>
<g fill="None" fill-opacity="0.0" stroke="#EB8343" stroke-opacity="1.00" stroke-width="0.3"><path d="
M 60.00 76.00 
C 62.62 73.38 59.86 68.37 61.00 65.00
C 59.55 67.81 61.62 73.40 60.00 76.00 Z"/>
</g>
<g fill="None" fill-opacity="0.0" stroke="#EB8343" stroke-opacity="1.00" stroke-width="0.3"><path d="
M 69.00 76.00 
C 67.39 73.41 69.47 67.84 68.00 65.00
C 69.12 68.30 66.41 73.41 69.00 76.00 Z"/>
</g>
<g fill="None" fill-opacity="0.0" stroke="#E97848" stroke-opacity="1.00" stroke-width="0.3"><path d="
M 88.00 69.00 
C 87.89 67.76 87.86 66.24 88.00 65.00
C 87.38 67.02 87.41 66.94 88.00 69.00 Z"/>
</g>
<g fill="None" fill-opacity="0.0" stroke="#E97947" stroke-opacity="1.00" stroke-width="0.3"><path d="
M 107.00 76.00 
C 109.39 73.61 107.82 67.58 107.00 65.00
C 107.33 66.83 107.98 74.52 107.00 76.00 Z"/>
</g>
<g fill="None" fill-opacity="0.0" stroke="#EE923C" stroke-opacity="1.00" stroke-width="0.3"><path d="
M 110.00 76.00 
C 108.95 74.32 109.75 67.05 110.00 65.00
C 109.37 67.55 107.51 73.51 110.00 76.00 Z"/>
</g>
<g fill="None" fill-opacity="0.0" stroke="#3570B5" stroke-opacity="1.00" stroke-width="0.3"><path d="
M 99.00 93.00 
C 99.00 90.00 99.00 87.00 99.00 84.00
C 97.28 85.89 97.48 91.04 99.00 93.00 Z"/>
</g>
<g fill="None" fill-opacity="0.0" stroke="#9DAE63" stroke-opacity="1.00" stroke-width="0.3"><path d="
M 99.00 93.00 
C 100.72 91.11 100.52 85.96 99.00 84.00
C 99.00 87.00 99.00 90.00 99.00 93.00 Z"/>
</g>
<g fill="None" fill-opacity="0.0" stroke="#4E80A4" stroke-opacity="1.00" stroke-width="0.3"><path d="
M 88.00 85.00 
C 81.85 88.55 88.93 96.05 95.00 93.00
C 88.67 90.12 96.69 91.19 96.00 87.00
C 94.75 87.39 91.82 90.95 93.00 87.00
C 88.77 86.07 91.41 92.50 88.00 92.00
C 87.70 89.30 89.15 87.37 88.00 85.00 Z"/>
</g>
<g fill="None" fill-opacity="0.0" stroke="#95AA7C" stroke-opacity="1.00" stroke-width="0.3"><path d="
M 103.00 87.00 
C 102.34 87.37 105.44 90.74 107.00 88.00
C 106.69 85.87 103.80 86.50 103.00 87.00 Z"/>
</g>
<g fill="None" fill-opacity="0.0" stroke="#90A66E" stroke-opacity="1.00" stroke-width="0.3"><path d="
M 110.00 87.00 
C 110.50 86.85 112.52 86.82 113.00 87.00
C 111.56 86.08 111.50 85.75 110.00 87.00 Z"/>
</g>
<g fill="None" fill-opacity="0.0" stroke="#719387" stroke-opacity="1.00" stroke-width="0.3"><path d="
M 118.00 87.00 
C 117.63 87.40 117.04 88.45 117.00 89.00
C 116.73 88.52 119.97 88.02 120.00 88.00
C 119.77 87.66 120.00 87.00 120.00 87.00
C 118.87 86.35 119.22 85.69 118.00 87.00 Z"/>
</g>
<g fill="None" fill-opacity="0.0" stroke="#A8B45B" stroke-opacity="1.00" stroke-width="0.3"><path d="
M 122.00 89.00 
C 122.09 89.48 121.87 90.53 122.00 91.00
C 122.08 91.31 123.80 92.63 124.00 93.00
C 124.31 90.91 123.15 88.35 125.00 87.00
C 123.92 86.10 122.50 87.60 122.00 89.00 Z"/>
</g>
<g fill="None" fill-opacity="0.0" stroke="#7F9C7D" stroke-opacity="1.00" stroke-width="0.3"><path d="
M 126.00 87.00 
C 126.25 87.25 126.00 88.00 126.00 88.00
C 126.00 88.00 126.59 88.19 127.00 88.00
C 127.26 87.88 127.65 87.09 128.00 87.00
C 126.76 86.68 127.46 85.62 126.00 87.00 Z"/>
</g>
<g fill="None" fill-opacity="0.0" stroke="#809D7B" stroke-opacity="1.00" stroke-width="0.3"><path d="
M 130.00 87.00 
C 130.23 87.34 130.00 88.00 130.00 88.00
C 130.75 89.47 130.93 91.68 132.00 93.00
C 131.78 91.85 131.99 86.99 132.00 87.00
C 131.42 86.41 130.46 85.34 130.00 87.00 Z"/>
</g>
<g fill="None" fill-opacity="0.0" stroke="#4A7DA6" stroke-opacity="1.00" stroke-width="0.3"><path d="
M 107.00 88.00 
C 105.44 90.74 102.34 87.37 103.00 87.00
C 97.95 89.09 103.26 95.97 107.00 92.00
C 99.47 91.27 107.42 90.90 107.00 88.00 Z"/>
</g>
<g fill="None" fill-opacity="0.0" stroke="#4379AA" stroke-opacity="1.00" stroke-width="0.3"><path d="
M 109.00 88.00 
C 108.81 88.22 108.91 90.69 109.00 91.00
C 109.29 93.46 114.59 94.02 114.00 91.00
C 111.84 93.08 109.19 90.64 110.00 88.00
C 111.06 88.95 116.06 88.16 113.00 87.00
C 112.52 86.82 110.50 86.85 110.00 87.00
C 109.72 87.23 109.24 87.73 109.00 88.00 Z"/>
</g>
<g fill="None" fill-opacity="0.0" stroke="#4479AB" stroke-opacity="1.00" stroke-width="0.3"><path d="
M 122.00 91.00 
C 121.87 90.53 122.09 89.48 122.00 89.00
C 121.80 87.91 120.86 87.50 120.00 87.00
C 120.00 87.00 119.77 87.66 120.00 88.00
C 122.67 91.95 116.71 93.16 117.00 89.00
C 117.04 88.45 117.63 87.40 118.00 87.00
C 112.04 90.58 120.48 95.79 122.00 91.00 Z"/>
</g>
<g fill="None" fill-opacity="0.0" stroke="#3671B4" stroke-opacity="1.00" stroke-width="0.3"><path d="
M 124.00 93.00 
C 125.26 91.79 125.24 89.48 126.00 88.00
C 126.00 88.00 126.25 87.25 126.00 87.00
C 126.00 87.00 125.30 87.25 125.00 87.00
C 123.15 88.35 124.31 90.91 124.00 93.00 Z"/>
</g>
<g fill="None" fill-opacity="0.0" stroke="#3872B3" stroke-opacity="1.00" stroke-width="0.3"><path d="
M 127.00 88.00 
C 129.31 88.67 126.80 92.26 129.00 93.00
C 128.31 91.10 129.57 89.27 130.00 88.00
C 130.00 88.00 130.23 87.34 130.00 87.00
C 129.53 87.12 128.47 86.88 128.00 87.00
C 127.65 87.09 127.26 87.88 127.00 88.00 Z"/>
</g>
<g fill="None" fill-opacity="0.0" stroke="#3771B4" stroke-opacity="1.00" stroke-width="0.3"><path d="
M 132.00 93.00 
C 133.85 91.89 133.22 88.24 132.00 87.00
C 131.99 86.99 131.78 91.85 132.00 93.00 Z"/>
</g>
<g fill="None" fill-opacity="0.0" stroke="#85A076" stroke-opacity="1.00" stroke-width="0.3"><path d="
M 109.00 91.00 
C 108.91 90.69 108.81 88.22 109.00 88.00
C 107.79 89.45 108.03 89.52 109.00 91.00 Z"/>
</g>
<g fill="None" fill-opacity="0.0" stroke="#D8D143" stroke-opacity="1.00" stroke-width="0.3"><path d="
M 117.00 89.00 
C 116.71 93.16 122.67 91.95 120.00 88.00
C 119.97 88.02 116.73 88.52 117.00 89.00 Z"/>
</g>
<g fill="None" fill-opacity="0.0" stroke="#FEFF41" stroke-opacity="0.02" stroke-width="0.3"><path d="
M 0.00 149.00 
L 151.00 149.00
L 151.00 148.00
C 151.00 148.00 150.50 148.00 150.00 148.00
C 100.00 148.00 50.00 148.00 0.00 148.00
L 0.00 149.00 Z"/>
</g>
<g fill="#FEE815" fill-opacity="0.67" stroke="None">
<path d="
M 0.00 1.00 
C 49.70 -2.36 100.41 5.48 150.00 1.00
C 150.00 0.50 150.00 0.00 150.00 0.00
L 0.00 0.00
L 0.00 1.00 Z"/>
</g>
<g fill="#FEE915" fill-opacity="0.14" stroke="None">
<path d="
M 150.00 1.00 
C 150.00 25.37 149.16 49.62 150.00 74.00 C 150.84 98.38 147.80 123.69 150.00 148.00
C 150.50 148.00 151.00 148.00 151.00 148.00
L 151.00 0.00
L 150.00 0.00
C 150.00 0.00 150.00 0.50 150.00 1.00 Z"/>
</g>
<g fill="#FEE716" fill-opacity="1.00" stroke="None">
<path d="
M 0.00 148.00 
C 50.00 148.00 100.00 148.00 150.00 148.00
C 147.80 123.69 150.84 98.38 150.00 74.00 C 149.16 49.62 150.00 25.37 150.00 1.00
C 100.41 5.48 49.70 -2.36 0.00 1.00
L 0.00 148.00
M 132.00 50.00 
C 134.53 51.23 132.22 56.46 129.32 54.66 C 126.42 52.86 129.18 48.63 132.00 50.00
M 25.00 62.00 
C 22.30 61.62 18.94 62.94 17.00 61.00
C 12.53 56.53 30.64 54.08 31.75 59.25 C 32.86 64.42 22.33 67.97 22.00 73.00
C 28.51 70.84 34.32 75.65 27.99 76.99 C 21.66 78.33 13.80 77.15 15.78 71.78 C 17.76 66.40 23.25 67.14 25.00 62.00
M 53.00 77.00 
C 47.07 76.51 36.82 78.62 34.23 70.77 C 31.64 62.92 38.99 54.95 46.67 57.33 C 54.35 59.71 55.76 70.54 53.00 77.00
M 69.00 76.00 
C 66.41 73.41 69.12 68.30 68.00 65.00
C 65.95 61.04 63.06 61.02 61.00 65.00
C 59.86 68.37 62.62 73.38 60.00 76.00
C 55.86 80.14 54.31 65.33 56.93 61.93 C 59.54 58.53 66.84 53.70 70.00 60.00
C 81.77 50.12 88.26 66.77 85.00 77.00
C 75.98 76.95 85.91 62.52 76.99 62.01 C 68.07 61.50 77.77 79.10 69.00 76.00
M 107.00 65.00 
C 107.82 67.58 109.39 73.61 107.00 76.00
C 101.92 81.08 89.88 75.56 88.00 69.00
C 87.41 66.94 87.38 67.02 88.00 65.00
C 89.32 53.58 104.14 55.94 107.00 65.00
M 126.00 64.00 
C 126.85 66.70 128.47 73.53 126.00 76.00
C 121.37 80.63 123.94 61.99 117.99 62.01 C 112.04 62.03 114.67 80.67 110.00 76.00
C 107.51 73.51 109.37 67.55 110.00 65.00
C 112.29 55.74 122.87 54.09 126.00 64.00
M 129.00 76.00 
C 126.65 73.65 127.31 61.47 129.00 59.00
C 134.62 50.77 135.10 82.10 129.00 76.00
M 99.00 93.00 
C 97.48 91.04 97.28 85.89 99.00 84.00
C 100.52 85.96 100.72 91.11 99.00 93.00
M 88.00 85.00 
C 89.15 87.37 87.70 89.30 88.00 92.00
C 91.41 92.50 88.77 86.07 93.00 87.00
C 91.82 90.95 94.75 87.39 96.00 87.00
C 96.69 91.19 88.67 90.12 95.00 93.00
C 88.93 96.05 81.85 88.55 88.00 85.00
M 107.00 88.00 
C 107.42 90.90 99.47 91.27 107.00 92.00
C 103.26 95.97 97.95 89.09 103.00 87.00
C 103.80 86.50 106.69 85.87 107.00 88.00
M 113.00 87.00 
C 116.06 88.16 111.06 88.95 110.00 88.00
C 109.19 90.64 111.84 93.08 114.00 91.00
C 114.59 94.02 109.29 93.46 109.00 91.00
C 108.03 89.52 107.79 89.45 109.00 88.00
C 109.24 87.73 109.72 87.23 110.00 87.00
C 111.50 85.75 111.56 86.08 113.00 87.00
M 120.00 87.00 
C 120.86 87.50 121.80 87.91 122.00 89.00
C 122.50 87.60 123.92 86.10 125.00 87.00
C 125.30 87.25 126.00 87.00 126.00 87.00
C 127.46 85.62 126.76 86.68 128.00 87.00
C 128.47 86.88 129.53 87.12 130.00 87.00
C 130.46 85.34 131.42 86.41 132.00 87.00
C 133.22 88.24 133.85 91.89 132.00 93.00
C 130.93 91.68 130.75 89.47 130.00 88.00
C 129.57 89.27 128.31 91.10 129.00 93.00
C 126.80 92.26 129.31 88.67 127.00 88.00
C 126.59 88.19 126.00 88.00 126.00 88.00
C 125.24 89.48 125.26 91.79 124.00 93.00
C 123.80 92.63 122.08 91.31 122.00 91.00
C 120.48 95.79 112.04 90.58 118.00 87.00
C 119.22 85.69 118.87 86.35 120.00 87.00 Z"/>
</g>
<g fill="#D82E73" fill-opacity="1.00" stroke="None">
<path d="
M 132.00 50.00 
C 129.18 48.63 126.42 52.86 129.32 54.66 C 132.22 56.46 134.53 51.23 132.00 50.00 Z"/>
</g>
<g fill="#D4177A" fill-opacity="1.00" stroke="None">
<path d="
M 17.00 61.00 
C 19.07 62.29 23.63 59.28 25.00 62.00
C 23.25 67.14 17.76 66.40 15.78 71.78 C 13.80 77.15 21.66 78.33 27.99 76.99 C 34.32 75.65 28.51 70.84 22.00 73.00
C 22.33 67.97 32.86 64.42 31.75 59.25 C 30.64 54.08 12.53 56.53 17.00 61.00 Z"/>
</g>
<g fill="#D41D79" fill-opacity="1.00" stroke="None">
<path d="
M 53.00 77.00 
C 55.76 70.54 54.35 59.71 46.67 57.33 C 38.99 54.95 31.64 62.92 34.23 70.77 C 36.82 78.62 47.07 76.51 53.00 77.00
M 50.00 74.00 
C 44.98 74.25 33.70 70.49 39.77 63.77 C 45.84 57.05 52.70 67.97 50.00 74.00 Z"/>
</g>
<g fill="#D4177A" fill-opacity="1.00" stroke="None">
<path d="
M 60.00 76.00 
C 61.62 73.40 59.55 67.81 61.00 65.00
C 63.06 61.02 65.95 61.04 68.00 65.00
C 69.47 67.84 67.39 73.41 69.00 76.00
C 77.77 79.10 68.07 61.50 76.99 62.01 C 85.91 62.52 75.98 76.95 85.00 77.00
C 88.26 66.77 81.77 50.12 70.00 60.00
C 66.84 53.70 59.54 58.53 56.93 61.93 C 54.31 65.33 55.86 80.14 60.00 76.00 Z"/>
</g>
<g fill="#D41A79" fill-opacity="1.00" stroke="None">
<path d="
M 88.00 65.00 
C 87.86 66.24 87.89 67.76 88.00 69.00
C 89.88 75.56 101.92 81.08 107.00 76.00
C 107.98 74.52 107.33 66.83 107.00 65.00
C 104.14 55.94 89.32 53.58 88.00 65.00
M 103.00 74.00 
C 98.39 74.47 87.11 69.64 93.31 63.31 C 99.50 56.98 105.97 68.04 103.00 74.00 Z"/>
</g>
<g fill="#D4157A" fill-opacity="1.00" stroke="None">
<path d="
M 110.00 65.00 
C 109.75 67.05 108.95 74.32 110.00 76.00
C 114.67 80.67 112.04 62.03 117.99 62.01 C 123.94 61.99 121.37 80.63 126.00 76.00
C 127.07 74.28 126.37 66.08 126.00 64.00
C 122.87 54.09 112.29 55.74 110.00 65.00 Z"/>
</g>
<g fill="#D3107A" fill-opacity="1.00" stroke="None">
<path d="
M 129.00 59.00 
C 128.12 61.03 127.87 74.18 129.00 76.00
C 135.10 82.10 134.62 50.77 129.00 59.00 Z"/>
</g>
<g fill="#EB8343" fill-opacity="1.00" stroke="None">
<path d="
M 129.00 76.00 
C 127.87 74.18 128.12 61.03 129.00 59.00
C 127.31 61.47 126.65 73.65 129.00 76.00 Z"/>
</g>
<g fill="#EB8443" fill-opacity="1.00" stroke="None">
<path d="
M 25.00 62.00 
C 23.63 59.28 19.07 62.29 17.00 61.00
C 18.94 62.94 22.30 61.62 25.00 62.00 Z"/>
</g>
<g fill="#FDDD1E" fill-opacity="1.00" stroke="None">
<path d="
M 50.00 74.00 
C 52.70 67.97 45.84 57.05 39.77 63.77 C 33.70 70.49 44.98 74.25 50.00 74.00 Z"/>
</g>
<g fill="#FEE21A" fill-opacity="1.00" stroke="None">
<path d="
M 103.00 74.00 
C 105.97 68.04 99.50 56.98 93.31 63.31 C 87.11 69.64 98.39 74.47 103.00 74.00 Z"/>
</g>
<g fill="#EB8542" fill-opacity="1.00" stroke="None">
<path d="
M 126.00 76.00 
C 128.47 73.53 126.85 66.70 126.00 64.00
C 126.37 66.08 127.07 74.28 126.00 76.00 Z"/>
</g>
<g fill="#EB8343" fill-opacity="1.00" stroke="None">
<path d="
M 60.00 76.00 
C 62.62 73.38 59.86 68.37 61.00 65.00
C 59.55 67.81 61.62 73.40 60.00 76.00 Z"/>
</g>
<g fill="#EB8343" fill-opacity="1.00" stroke="None">
<path d="
M 69.00 76.00 
C 67.39 73.41 69.47 67.84 68.00 65.00
C 69.12 68.30 66.41 73.41 69.00 76.00 Z"/>
</g>
<g fill="#E97848" fill-opacity="1.00" stroke="None">
<path d="
M 88.00 69.00 
C 87.89 67.76 87.86 66.24 88.00 65.00
C 87.38 67.02 87.41 66.94 88.00 69.00 Z"/>
</g>
<g fill="#E97947" fill-opacity="1.00" stroke="None">
<path d="
M 107.00 76.00 
C 109.39 73.61 107.82 67.58 107.00 65.00
C 107.33 66.83 107.98 74.52 107.00 76.00 Z"/>
</g>
<g fill="#EE923C" fill-opacity="1.00" stroke="None">
<path d="
M 110.00 76.00 
C 108.95 74.32 109.75 67.05 110.00 65.00
C 109.37 67.55 107.51 73.51 110.00 76.00 Z"/>
</g>
<g fill="#3570B5" fill-opacity="1.00" stroke="None">
<path d="
M 99.00 93.00 
C 99.00 90.00 99.00 87.00 99.00 84.00
C 97.28 85.89 97.48 91.04 99.00 93.00 Z"/>
</g>
<g fill="#9DAE63" fill-opacity="1.00" stroke="None">
<path d="
M 99.00 93.00 
C 100.72 91.11 100.52 85.96 99.00 84.00
C 99.00 87.00 99.00 90.00 99.00 93.00 Z"/>
</g>
<g fill="#4E80A4" fill-opacity="1.00" stroke="None">
<path d="
M 88.00 85.00 
C 81.85 88.55 88.93 96.05 95.00 93.00
C 88.67 90.12 96.69 91.19 96.00 87.00
C 94.75 87.39 91.82 90.95 93.00 87.00
C 88.77 86.07 91.41 92.50 88.00 92.00
C 87.70 89.30 89.15 87.37 88.00 85.00 Z"/>
</g>
<g fill="#95AA7C" fill-opacity="1.00" stroke="None">
<path d="
M 103.00 87.00 
C 102.34 87.37 105.44 90.74 107.00 88.00
C 106.69 85.87 103.80 86.50 103.00 87.00 Z"/>
</g>
<g fill="#90A66E" fill-opacity="1.00" stroke="None">
<path d="
M 110.00 87.00 
C 110.50 86.85 112.52 86.82 113.00 87.00
C 111.56 86.08 111.50 85.75 110.00 87.00 Z"/>
</g>
<g fill="#719387" fill-opacity="1.00" stroke="None">
<path d="
M 118.00 87.00 
C 117.63 87.40 117.04 88.45 117.00 89.00
C 116.73 88.52 119.97 88.02 120.00 88.00
C 119.77 87.66 120.00 87.00 120.00 87.00
C 118.87 86.35 119.22 85.69 118.00 87.00 Z"/>
</g>
<g fill="#A8B45B" fill-opacity="1.00" stroke="None">
<path d="
M 122.00 89.00 
C 122.09 89.48 121.87 90.53 122.00 91.00
C 122.08 91.31 123.80 92.63 124.00 93.00
C 124.31 90.91 123.15 88.35 125.00 87.00
C 123.92 86.10 122.50 87.60 122.00 89.00 Z"/>
</g>
<g fill="#7F9C7D" fill-opacity="1.00" stroke="None">
<path d="
M 126.00 87.00 
C 126.25 87.25 126.00 88.00 126.00 88.00
C 126.00 88.00 126.59 88.19 127.00 88.00
C 127.26 87.88 127.65 87.09 128.00 87.00
C 126.76 86.68 127.46 85.62 126.00 87.00 Z"/>
</g>
<g fill="#809D7B" fill-opacity="1.00" stroke="None">
<path d="
M 130.00 87.00 
C 130.23 87.34 130.00 88.00 130.00 88.00
C 130.75 89.47 130.93 91.68 132.00 93.00
C 131.78 91.85 131.99 86.99 132.00 87.00
C 131.42 86.41 130.46 85.34 130.00 87.00 Z"/>
</g>
<g fill="#4A7DA6" fill-opacity="1.00" stroke="None">
<path d="
M 107.00 88.00 
C 105.44 90.74 102.34 87.37 103.00 87.00
C 97.95 89.09 103.26 95.97 107.00 92.00
C 99.47 91.27 107.42 90.90 107.00 88.00 Z"/>
</g>
<g fill="#4379AA" fill-opacity="1.00" stroke="None">
<path d="
M 109.00 88.00 
C 108.81 88.22 108.91 90.69 109.00 91.00
C 109.29 93.46 114.59 94.02 114.00 91.00
C 111.84 93.08 109.19 90.64 110.00 88.00
C 111.06 88.95 116.06 88.16 113.00 87.00
C 112.52 86.82 110.50 86.85 110.00 87.00
C 109.72 87.23 109.24 87.73 109.00 88.00 Z"/>
</g>
<g fill="#4479AB" fill-opacity="1.00" stroke="None">
<path d="
M 122.00 91.00 
C 121.87 90.53 122.09 89.48 122.00 89.00
C 121.80 87.91 120.86 87.50 120.00 87.00
C 120.00 87.00 119.77 87.66 120.00 88.00
C 122.67 91.95 116.71 93.16 117.00 89.00
C 117.04 88.45 117.63 87.40 118.00 87.00
C 112.04 90.58 120.48 95.79 122.00 91.00 Z"/>
</g>
<g fill="#3671B4" fill-opacity="1.00" stroke="None">
<path d="
M 124.00 93.00 
C 125.26 91.79 125.24 89.48 126.00 88.00
C 126.00 88.00 126.25 87.25 126.00 87.00
C 126.00 87.00 125.30 87.25 125.00 87.00
C 123.15 88.35 124.31 90.91 124.00 93.00 Z"/>
</g>
<g fill="#3872B3" fill-opacity="1.00" stroke="None">
<path d="
M 127.00 88.00 
C 129.31 88.67 126.80 92.26 129.00 93.00
C 128.31 91.10 129.57 89.27 130.00 88.00
C 130.00 88.00 130.23 87.34 130.00 87.00
C 129.53 87.12 128.47 86.88 128.00 87.00
C 127.65 87.09 127.26 87.88 127.00 88.00 Z"/>
</g>
<g fill="#3771B4" fill-opacity="1.00" stroke="None">
<path d="
M 132.00 93.00 
C 133.85 91.89 133.22 88.24 132.00 87.00
C 131.99 86.99 131.78 91.85 132.00 93.00 Z"/>
</g>
<g fill="#85A076" fill-opacity="1.00" stroke="None">
<path d="
M 109.00 91.00 
C 108.91 90.69 108.81 88.22 109.00 88.00
C 107.79 89.45 108.03 89.52 109.00 91.00 Z"/>
</g>
<g fill="#D8D143" fill-opacity="1.00" stroke="None">
<path d="
M 117.00 89.00 
C 116.71 93.16 122.67 91.95 120.00 88.00
C 119.97 88.02 116.73 88.52 117.00 89.00 Z"/>
</g>
<g fill="#FEFF41" fill-opacity="0.02" stroke="None">
<path d="
M 0.00 149.00 
L 151.00 149.00
L 151.00 148.00
C 151.00 148.00 150.50 148.00 150.00 148.00
C 100.00 148.00 50.00 148.00 0.00 148.00
L 0.00 149.00 Z"/>
</g>
</svg>